<svg id="Layer_1" data-name="Layer 1" xmlns="http://www.w3.org/2000/svg" viewBox="0 0 1037.53 1123.62"><linearGradient id="miGradiente" x1="0%" y1="0%" x2="100%" y2="100%"><stop offset="20%" style="stop-color:rgb(255,225,100);stop-opacity:1" /><stop offset="70%" style="stop-color:rgb(50,10,50,1.0);stop-opacity:1" /></linearGradient><style>.cls-1{fill: url(#miGradiente);}</style><title>2</title><path class="cls-1" d="M351.87,661.39c4.13-4.08,9-7.65,14.64-9.39A29.27,29.27,0,0,1,398,661.61a21.88,21.88,0,0,1,4.18,7.67,19.54,19.54,0,0,1,.49,8.73,18.78,18.78,0,0,1-9.81,13.62,12,12,0,0,1-15.11-4.36,11.8,11.8,0,0,0,14.94,4,18.18,18.18,0,0,0,9.23-13.4,19,19,0,0,0-4.8-15.52,27.71,27.71,0,0,0-30-8.52c-5.21,1.71-9.73,5.2-13.59,9.18a44.32,44.32,0,0,0-9.24,46.43,43.1,43.1,0,0,0,3.67,7.35,61.4,61.4,0,0,0,4.91,6.74,66.36,66.36,0,0,0,58.58,23.73A65.23,65.23,0,0,0,434,740.36a128,128,0,0,1,46.48-22.08,194.24,194.24,0,0,1,105.35,5.39,201,201,0,0,1,109.81,90.5c-.3-7.24-.7-14.46-.43-21.71.07-1.41.11-2.42.12-3.57.3-24.29,17.12-87.66,13-111.52a292,292,0,0,0-20.58-69.25c-9.77-22-22.8-42.53-39.14-60A172,172,0,0,0,590.71,507,153,153,0,0,0,521,494.79,147.77,147.77,0,0,0,503.19,497,111.92,111.92,0,0,0,486,501.35c-11,4-21.23,10.88-27.77,20.68s-8.71,22.19-6.69,34A34.27,34.27,0,0,0,458,572.3a31.5,31.5,0,0,0,13.87,10.43,30.48,30.48,0,0,0,17.33,1.35,20.38,20.38,0,0,0,14.78-27.35,13.1,13.1,0,0,0-14.68-7.27.34.34,0,0,1-.42-.25.36.36,0,0,1,.25-.44h0A14,14,0,0,1,505,556.22a21.57,21.57,0,0,1-.75,18.51,22,22,0,0,1-14.65,11.41,32.88,32.88,0,0,1-18.6-1,34.17,34.17,0,0,1-15.35-11,37.35,37.35,0,0,1-7.5-17.52,55,55,0,0,1-.37-19.07,47.77,47.77,0,0,1,6.81-18c6.93-11,17.85-18.66,29.54-23.24a115.94,115.94,0,0,1,18-5.08,154.31,154.31,0,0,1,18.4-2.73A159.9,159.9,0,0,1,593.7,499.5c1,.41,2,.89,3.08,1.32a72,72,0,0,1-4.2-6.45,73.91,73.91,0,0,1-9.72-35.55,73,73,0,0,1,8.68-35.64A46.56,46.56,0,0,1,619.21,400a45.33,45.33,0,0,1,35.44,3.77,30.12,30.12,0,0,1,12.68,13.15A30.67,30.67,0,0,1,670.18,435a30,30,0,0,1-2.74,8.8,20.29,20.29,0,0,1-5.61,7.28,18.93,18.93,0,0,1-17.27,3.47,15.25,15.25,0,0,1-7.66-4.81,12.63,12.63,0,0,1-2.73-8.63c.22-3,1.38-6.17,3.9-8a7.83,7.83,0,0,1,8.58-.4.14.14,0,1,1-.14.25,7.47,7.47,0,0,0-8.17.53c-2.3,1.74-3.39,4.82-3.53,7.68a11.9,11.9,0,0,0,2.73,8.07,14.29,14.29,0,0,0,7.29,4.36A17.81,17.81,0,0,0,661,450a18.79,18.79,0,0,0,5.07-6.89,28.09,28.09,0,0,0,2.42-8.35,28.62,28.62,0,0,0-3-16.86,27.82,27.82,0,0,0-12-11.93,42.6,42.6,0,0,0-33.33-2.88A43,43,0,0,0,595,425a68.65,68.65,0,0,0,2.21,66.55A66.51,66.51,0,0,0,610,507a184.67,184.67,0,0,1,45.65,34.2c17.64,17.95,31.84,39.19,42.63,61.94a303.78,303.78,0,0,1,23.25,71.72c1.12,5.71,1.43,17.88.42,24.11,7.08-13.56,27.52-36.31,38.32-50.37,20.87-27.14,62.84-67.36,89.48-84.4,6.66-4.29,13.54-8.24,20.41-12,1.1-.61,2.22-1.17,3.33-1.76l.06-.06a107.31,107.31,0,0,0,39.83-37.6,110.73,110.73,0,0,0,5.34-107.27,69.6,69.6,0,0,0-40.06-36.2,68.51,68.51,0,0,0-53.8,3.72A45,45,0,0,0,805.16,392a46,46,0,0,0-5.28,27.1,44.82,44.82,0,0,0,3.66,13.53,30.52,30.52,0,0,0,8,11.26,28.76,28.76,0,0,0,25.94,6.2c4.45-1.21,8.85-3.27,11.87-6.84a19.26,19.26,0,0,0,3.17-19.79,13,13,0,0,0-4-5.61,12,12,0,0,0-13.13-1.08.17.17,0,0,1-.24-.07.18.18,0,0,1,.07-.24,12.47,12.47,0,0,1,13.65.93,13.69,13.69,0,0,1,4.34,5.79,20.13,20.13,0,0,1-3,20.76c-3.16,3.84-7.73,6.06-12.33,7.38a30.19,30.19,0,0,1-27.36-6.11,32.36,32.36,0,0,1-8.67-11.76,47.4,47.4,0,0,1-4-14.08,48.57,48.57,0,0,1,5.12-28.63,48,48,0,0,1,20.56-20.45,72.06,72.06,0,0,1,56.47-4.78A73.25,73.25,0,0,1,905.19,380,75.55,75.55,0,0,1,923,403.29a116,116,0,0,1,12.63,56.95A117.41,117.41,0,0,1,919,516.38a113.9,113.9,0,0,1-14.87,19.56,194.23,194.23,0,0,1,31.79-9.67c7.72-1.63,15.5-2.79,23.29-3.65,5.68-.63,11.47-1.13,17.28-1.27A66.15,66.15,0,0,0,999,513.48a67.93,67.93,0,0,0,23.77-22.81,68.85,68.85,0,0,0,10.4-31.61,51.26,51.26,0,0,0-1.16-16.65,44.1,44.1,0,0,0-7-15.05A43.54,43.54,0,0,0,997.52,410c-5.45-1-11.15-1.09-16.4.62a28.14,28.14,0,0,0-13.47,9.35,28.73,28.73,0,0,0-6.08,15.45,19.05,19.05,0,0,0,5,15.47,17.86,17.86,0,0,0,15.18,5.41,12,12,0,0,0,9.76-12,.11.11,0,1,1,.21,0,12.33,12.33,0,0,1-9.88,12.54,18.42,18.42,0,0,1-15.8-5.35,19.3,19.3,0,0,1-4.58-7.39,22.11,22.11,0,0,1-1-8.69,29.84,29.84,0,0,1,6.09-16.19,29.48,29.48,0,0,1,14-10.06c5.56-1.9,11.52-1.84,17.19-.95a45.64,45.64,0,0,1,29.05,17.79,46.94,46.94,0,0,1,9.15,24.56,67.84,67.84,0,0,1,0,8.79A72.11,72.11,0,0,1,1001,517a70,70,0,0,1-10,4.88,67.51,67.51,0,0,1,15.45,3.31,72.55,72.55,0,0,1,10.9,4.95,43.55,43.55,0,0,1,9.84,7.19c5.85,5.66,10,13.56,10.17,22a28.64,28.64,0,0,1-2.46,12.11,19.91,19.91,0,0,1-8.4,9,19.31,19.31,0,0,1-11.9,2.24,17.5,17.5,0,0,1-5.86-1.81,13,13,0,0,1-5.73-16.23,8.28,8.28,0,0,1,10.39-4.6l.06,0a.5.5,0,0,1,.28.63.47.47,0,0,1-.62.3,7.15,7.15,0,0,0-8.91,4.16,11.47,11.47,0,0,0,1.31,10.56,11.27,11.27,0,0,0,4,3.56,15.84,15.84,0,0,0,5.26,1.46,17.38,17.38,0,0,0,17.73-10.37,25.63,25.63,0,0,0,1.91-10.91c-.34-7.48-4.22-14.45-9.7-19.47a39.66,39.66,0,0,0-9.17-6.33,69.3,69.3,0,0,0-10.46-4.4,71.82,71.82,0,0,0-22.32-3,171.88,171.88,0,0,0-22.87,1.89c-7.62,1-15.18,2.4-22.63,4.19-29.79,7-57.16,22.45-82.85,39.24C829,588.73,790.67,626.14,773,649c-18.73,24.19-62.59,79.28-62.59,126.88,0,2.42-.27,4.83-.38,7.24,0,2,.1,4,.13,6v.19c0,.78,0,1.55,0,2.37a313.54,313.54,0,0,0,8.5,75.63c7.06,30.05,17.54,59.31,30,87.64,8.82,20.07,18.72,39.54,29.33,58.79,13.62,19.06,28.6,52.15,57.11,52.15,13.93,0,35.69-25.88,48.23-52.39,1-2.21,2-4.39,2.92-6.61.33-.79.65-1.57.95-2.36a6.29,6.29,0,0,1,.55-1C897.06,982,906.07,960,916,938.42c10.38-22.58,21.67-45,35.26-66.09,4.53-11.29,5.91-23.43,7.64-35.55,2.49-17.54-2.9-58.55-10.4-74.27a105.94,105.94,0,0,0-32.87-39.86,103.7,103.7,0,0,0-10.93-7,67.62,67.62,0,0,0-11.78-5,66.25,66.25,0,0,0-25.38-2.85,67.59,67.59,0,0,0-45.2,22.78c-5.71,6.59-10.57,14.16-12.61,22.61A45.09,45.09,0,0,0,811,778.91a44.29,44.29,0,0,0,15.25,20.85,31.8,31.8,0,0,0,11.54,5.76,28.12,28.12,0,0,0,32.36-16,18.9,18.9,0,0,0,.32-12.95,18.66,18.66,0,0,0-8.13-10.1.23.23,0,0,1-.07-.3.2.2,0,0,1,.28-.08,19.26,19.26,0,0,1,8.57,10.25,19.76,19.76,0,0,1-.07,13.54,29.54,29.54,0,0,1-33.66,17.37,30.08,30.08,0,0,1-6.5-2.28,44.8,44.8,0,0,1-5.84-3.55,46.7,46.7,0,0,1-16.49-21.63,48,48,0,0,1,3.19-40.44,72.88,72.88,0,0,1,7.85-11.33,71.93,71.93,0,0,1,47.54-25.14,71.25,71.25,0,0,1,40.21,7.69A107.78,107.78,0,0,1,919,717.8a112.25,112.25,0,0,1,35.69,41.58c8.34,16.59,15.43,57.24,13.56,76.33-.49,4.9-.52,8.54-1.25,13.42,9-11.76,17.58-20.24,28.77-30a165.31,165.31,0,0,1,40.54-26.46A153.69,153.69,0,0,1,1068,782.21a52.83,52.83,0,0,0,10.72-8.2,41.74,41.74,0,0,0,12.12-24.66,43.43,43.43,0,0,0-5.8-27.13c-4.76-8.09-12.45-14.58-21.51-16.89s-19-.36-27,4.44A24.84,24.84,0,0,0,1027,720a22.72,22.72,0,0,0-1.76,13.86c.88,4.66,2.5,9.47,6.17,12.5a15.19,15.19,0,0,0,13.16,3.35,10.92,10.92,0,0,0,6.07-3.32,10.14,10.14,0,0,0,2.58-6.48c0-2.35-.62-4.91-2.42-6.49a6.4,6.4,0,0,0-6.63-1.15.12.12,0,0,1-.15-.06.12.12,0,0,1,.07-.14,6.68,6.68,0,0,1,6.93,1.09c2,1.64,2.65,4.3,2.68,6.75a10.78,10.78,0,0,1-2.59,6.9,11.7,11.7,0,0,1-6.37,3.65,16,16,0,0,1-14-3.3,16.53,16.53,0,0,1-4.54-6,31.81,31.81,0,0,1-2.25-7.11,24.13,24.13,0,0,1,1.62-14.79,26.58,26.58,0,0,1,9.89-11.08c8.39-5.22,18.76-7.58,28.56-5.21s18.19,9.12,23.45,17.67a46.79,46.79,0,0,1,6.75,29.09,45.58,45.58,0,0,1-12.72,27.13,49,49,0,0,1-3.8,3.55c1.66-.25,3.32-.49,5-.69a196,196,0,0,1,47.8.43l.81.13a97.25,97.25,0,0,0,41.47-7.46A100.11,100.11,0,0,0,1213,742a101.72,101.72,0,0,0,20.15-47.15,65.61,65.61,0,0,0-11.2-49,64.06,64.06,0,0,0-42.54-26.31,40.76,40.76,0,0,0-24.77,3.65A42,42,0,0,0,1132.11,653a28.45,28.45,0,0,0,.12,12.82,27.13,27.13,0,0,0,16.31,18.71c4,1.5,8.4,2.33,12.54,1.27a17.34,17.34,0,0,0,10.27-7.26c2.3-3.58,3.67-8.2,2.41-12.38a11.29,11.29,0,0,0-9.34-7.93.17.17,0,0,1-.15-.2.17.17,0,0,1,.19-.15,11.72,11.72,0,0,1,9.85,8.1,13,13,0,0,1,.25,6.75A18.69,18.69,0,0,1,1172,679a18.28,18.28,0,0,1-10.69,7.83c-4.41,1.2-9,.4-13.23-1.09a28.62,28.62,0,0,1-17.52-19.47,30.43,30.43,0,0,1-.38-13.62,44.32,44.32,0,0,1,23.3-31.8,43.62,43.62,0,0,1,26.37-4.35,67.57,67.57,0,0,1,45.32,27,69.72,69.72,0,0,1,11.58,24.69,71.3,71.3,0,0,1,1.24,27.37,106.64,106.64,0,0,1-62.58,83.57,102.33,102.33,0,0,1-18.06,6c6.58,1.55,13.12,3.28,19.57,5.24,3.79,1.15,7.58,2.39,11.26,3.64s7.56,2.74,11.24,4.39a110.23,110.23,0,0,1,20.92,12.14c13,9.63,23.66,23,29.13,38.53a80.68,80.68,0,0,1,1.62,48.29,87.45,87.45,0,0,1-4,11.48,48.37,48.37,0,0,1-6.19,10.68,46.54,46.54,0,0,1-19.29,14.71,45.46,45.46,0,0,1-23.84,2.9,46,46,0,0,1-11.58-3.34,30.14,30.14,0,0,1-10-7,30.84,30.84,0,0,1-8.18-22.6,29.62,29.62,0,0,1,3.13-11.81,19.42,19.42,0,0,1,8.7-8.47,19,19,0,0,1,11.89-1.62,17.63,17.63,0,0,1,5.7,2.12,12.64,12.64,0,0,1,4.29,4.4,12.77,12.77,0,0,1,.49,11.92,8.09,8.09,0,0,1-10.49,3.88l0,0a.36.36,0,0,1-.17-.47.34.34,0,0,1,.46-.18,7.28,7.28,0,0,0,9.42-3.62,11.72,11.72,0,0,0-.66-10.9,11.15,11.15,0,0,0-3.94-3.9,15.94,15.94,0,0,0-5.29-1.84,17.48,17.48,0,0,0-10.94,1.69,17.7,17.7,0,0,0-7.79,7.87,28,28,0,0,0-2.69,11.05,28.47,28.47,0,0,0,7.93,20.72,27.42,27.42,0,0,0,9.23,6.24,42.38,42.38,0,0,0,33.1-.19,43,43,0,0,0,17.52-13.88,44.66,44.66,0,0,0,5.47-9.9,83.22,83.22,0,0,0,3.59-11,75.74,75.74,0,0,0-2.34-45.31c-5.37-14.34-15.45-26.54-27.82-35.33a103.85,103.85,0,0,0-19.92-11c-3.5-1.49-7.12-2.8-10.72-4-3.75-1.18-7.42-2.31-11.15-3.36a272.76,272.76,0,0,0-45.34-9,187.34,187.34,0,0,0-45.77.47,147,147,0,0,0-43.46,13c-27.52,13-50,35.1-67.86,60.23a341.94,341.94,0,0,0-21.64,35.06,114.58,114.58,0,0,1,19.45-13.16c22.75-12.21,49.32-16,74.42-12A116.42,116.42,0,0,1,1081,883.62a89.79,89.79,0,0,1,16,10.74,73.51,73.51,0,0,1,13,14.42c14.76,21.21,20.23,49,13.2,74.08a69.25,69.25,0,0,1-20,32.67,58,58,0,0,1-71.15,5.11,55.13,55.13,0,0,1-13.85-13.2,48,48,0,0,1-.9-54.49,41.18,41.18,0,0,1,13.72-13.09,36.78,36.78,0,0,1,18.17-4.82c12.6,0,25.23,6.8,31.35,18.08a30.46,30.46,0,0,1,3.16,18.51,30.07,30.07,0,0,1-8.28,16.71.23.23,0,0,1-.3,0,.21.21,0,0,1,0-.31,29.52,29.52,0,0,0,4.57-34.44c-6-10.8-18.42-17.26-30.49-17a35.1,35.1,0,0,0-17.3,4.86,39.27,39.27,0,0,0-12.89,12.69,45.48,45.48,0,0,0-6.09,35.16,44.81,44.81,0,0,0,7.59,16.42,52,52,0,0,0,13.26,12.27,54.34,54.34,0,0,0,66.6-5.63,64.72,64.72,0,0,0,18.22-30.79c6.27-23.54.7-49.76-13.36-69.3-6.92-9.9-16.51-17.38-27.23-22.86a109.75,109.75,0,0,0-34.3-10.69c-23.8-3.43-48.67.59-69.61,12.23a108.15,108.15,0,0,0-28,22.36,121.82,121.82,0,0,0-9.81,12.57q-4.2,9-8.2,18.17c-8.53,19.55-16.37,39.48-24.49,59.43-58.39,161-44.57,273-37,426.14H799.89C819.23,1236.4,807,1134.67,761,1026a734.19,734.19,0,0,1-37.53-83.8,96.27,96.27,0,0,0-61.16-51.47,94.77,94.77,0,0,0-47.08-1c-7.79,1.83-15.29,4.44-22,8.68A61.94,61.94,0,0,0,576,914.5,64.1,64.1,0,0,0,564.26,960c1.06,8,3.29,16,7.82,22.53a40.37,40.37,0,0,0,18.34,14.72,39.7,39.7,0,0,0,23.46,1.87,29.13,29.13,0,0,0,10.91-4.64,26,26,0,0,0,7.82-9,26.56,26.56,0,0,0,.82-23.45,17,17,0,0,0-8.65-8.05,16.8,16.8,0,0,0-11.83-.39.2.2,0,0,1-.26-.13.21.21,0,0,1,.12-.27,17.32,17.32,0,0,1,12.22.14,17.83,17.83,0,0,1,9.26,8.24A28.08,28.08,0,0,1,625.84,996a31.21,31.21,0,0,1-11.49,5.21,42,42,0,0,1-24.85-1.44,43.21,43.21,0,0,1-20-15.33A44.34,44.34,0,0,1,563.64,973a68.19,68.19,0,0,1,8.51-61.31,66.65,66.65,0,0,1,29.67-23.82,97.89,97.89,0,0,1,12-3.92,101.34,101.34,0,0,1,50.2-.07A103.64,103.64,0,0,1,708.61,908c1.73,1.58,3.4,3.24,5,4.95-4.22-13.79-7.88-27.77-10.84-41.95q-2.31-11.22-4-22.62a190.9,190.9,0,0,0-116-115.79A186,186,0,0,0,482.26,726a120.2,120.2,0,0,0-45.68,21.35,124.89,124.89,0,0,0-48.65,87.36,126.38,126.38,0,0,0,.14,25.87,86.25,86.25,0,0,0,6.08,24.9,79.6,79.6,0,0,0,33,37.92,77.81,77.81,0,0,0,49.06,10.21A50.84,50.84,0,0,0,499.83,925a51.86,51.86,0,0,0,22.29-44,43.07,43.07,0,0,0-2-12.67,33,33,0,0,0-6.34-11,32.61,32.61,0,0,0-22.18-11.17,27.57,27.57,0,0,0-12.46,1.73,21.12,21.12,0,0,0-9.54,8.11,21.55,21.55,0,0,0-3.36,12.22,14.42,14.42,0,0,0,5,11.28,13.27,13.27,0,0,0,11.91,2.67,8.87,8.87,0,0,0,6.07-9.91.3.3,0,0,1,.24-.33.29.29,0,0,1,.32.23,9.58,9.58,0,0,1-6.44,10.75,14.12,14.12,0,0,1-12.68-2.68,14.63,14.63,0,0,1-4.13-5.34,17.71,17.71,0,0,1-1.44-6.63,22.91,22.91,0,0,1,3.38-13,22.53,22.53,0,0,1,10.06-8.79,29.06,29.06,0,0,1,13.14-2,34.47,34.47,0,0,1,23.57,11.48,35.17,35.17,0,0,1,6.91,11.63,45.58,45.58,0,0,1,2.35,13.34,54.73,54.73,0,0,1-22.91,46.67,54,54,0,0,1-24.9,9.52,81.64,81.64,0,0,1-51.59-10,84.07,84.07,0,0,1-35.45-39.64,91.42,91.42,0,0,1-6.81-26.25A131.36,131.36,0,0,1,421.5,751.08,70.84,70.84,0,0,1,349.89,726a68.92,68.92,0,0,1-5-7.22,48.92,48.92,0,0,1-3.82-8.09,47.3,47.3,0,0,1,10.82-49.29Z" transform="translate(-280.2 -305.98)"/><path class="cls-1" d="M612,977.15a13.2,13.2,0,0,0,2-7.55,20.18,20.18,0,0,0-2.09-7.67c-1.69-.35-5.33,1.29-8.54,4.77a33.83,33.83,0,0,0-7.18,12.54,22.29,22.29,0,0,1,7-16.79c3.59-3.18,6.76-3.48,6.88-3.23a9.91,9.91,0,0,0-9-3c-3.74.59-8,3.41-10.78,8.43-3.16,5.65-2.35,12.74-.5,17.72a31.59,31.59,0,0,0,4.46,8.29s3.54-2.17,7.53-4.78S610.18,980.33,612,977.15Z" transform="translate(-280.2 -305.98)"/><path class="cls-1" d="M613.83,934.22c.42,6.89,4.58,10.78,10.3,11.66,2.54-2.28,3.91-13.37,2.48-20.81A22.65,22.65,0,0,1,629.69,940c-.59,3.77-2,6-2.32,6,5.85-.74,11.86-4.87,11.36-13.37-.29-4.74-4-9.46-7.73-12.5a29.29,29.29,0,0,0-7.4-4.46s-2.36,3.12-4.87,6.76S613.59,930.28,613.83,934.22Z" transform="translate(-280.2 -305.98)"/><path class="cls-1" d="M660.35,964.1c-6.26-.56-11.86,1.1-15.6,4.36-4.12,3.5-4,7.4-2.53,10a35.7,35.7,0,0,1,4.74-1.28A30.22,30.22,0,0,1,654,977a84.73,84.73,0,0,1,15.42,2.92c-8,.3-14.08.13-18.29.19a26,26,0,0,0-4.82.42c-1.19.27-1.87.56-2,.41,2.23,1.78,5.09,3.24,6.49,5.21,1.56,1.8,3.66,2.88,7.38,3.2,4.08.35,9.31-1.55,13.9-2.89a40,40,0,0,1,6-1.4,14,14,0,0,1,2.73,0,10.17,10.17,0,0,0-.22-3,21.22,21.22,0,0,0-3.28-7.08C673.83,969.8,667.58,964.73,660.35,964.1Z" transform="translate(-280.2 -305.98)"/><path class="cls-1" d="M612.7,1025.15c1.82-4.68,1.51-7.71.49-10.19a12.6,12.6,0,0,0-5.49-5.85c-1.6.62-3.63,3.55-5.5,7.23s-3.87,7.77-6.09,10.59c.85-3.07,1.3-5.59,2-7.92a30,30,0,0,1,2.37-6.11c1.81-3.46,4-5.15,4.24-5a12.81,12.81,0,0,0-8.91.94,13.29,13.29,0,0,0-6.18,6.78,7.47,7.47,0,0,0-.13,4.47,27.81,27.81,0,0,1,.62,5.65,48.85,48.85,0,0,1-.93,8.13,18.18,18.18,0,0,0,8.85,1.65,17.27,17.27,0,0,0,8.63-3A16.82,16.82,0,0,0,612.7,1025.15Z" transform="translate(-280.2 -305.98)"/><path class="cls-1" d="M537.83,1003.5a22.22,22.22,0,0,0,10.94-.76,16.16,16.16,0,0,0,7.33-4.94c3.15-4,2.62-7.7,1-10-2.08.59-6.46,3.35-11.79,3.08-5.27-.07-10.84-2.41-15-4.85,8,1.87,13.58,2.11,17.47,1.49s6.63-2.23,6.92-1.93c-2.56-1.59-5.62-2.63-7.66-4s-2.66-2.67-5-3c-2.56-.36-7.71.58-12.56.42a39.64,39.64,0,0,1-9.15-1.13,19.74,19.74,0,0,0,.93,10.66,24.47,24.47,0,0,0,5.64,9.16A20.5,20.5,0,0,0,537.83,1003.5Z" transform="translate(-280.2 -305.98)"/><path class="cls-1" d="M581.47,871.13c4.15,7.37,9,9.84,14.86,9.56.91-1.68.55-6.27-1.22-11.33A43.9,43.9,0,0,0,586.94,855a29.25,29.25,0,0,1,12.14,16.46c1.43,5.06.71,8.47.41,8.5a10.9,10.9,0,0,0,6.09-7.59c.95-3.8.47-8.72-2.55-14-3.34-5.9-10.35-10-16.51-11.27a20.11,20.11,0,0,0-7.7-.26,11.66,11.66,0,0,0-2.83.9,20.24,20.24,0,0,1,1,2.61,36.16,36.16,0,0,1,1.2,6.19C578.82,861.36,579.08,867,581.47,871.13Z" transform="translate(-280.2 -305.98)"/><path class="cls-1" d="M507.43,889.22C506,880,499.55,877,494.15,878.71c-.62,1.66-.34,5-.14,8.72s.39,7.94.28,11.28c-2.23-5.45-3.3-9.5-3.52-12.88s.12-5.61.42-5.77c-5,3.35-9.22,7.84-8.44,12.88.4,2.85,3.52,5.18,6,8a16.75,16.75,0,0,1,2.89,4.22,18.56,18.56,0,0,1,.82,2.24,9.54,9.54,0,0,0,2.52-.2,13.68,13.68,0,0,0,5.82-3C505,900.77,508.25,894.46,507.43,889.22Z" transform="translate(-280.2 -305.98)"/><path class="cls-1" d="M447.49,869.2c4.17,1,8.24.27,10.79-1.6a8.78,8.78,0,0,0,3.61-7.55c-1.4-1-4.57-1.7-7.95-2.88s-7.17-2.6-10.42-3.45a30.08,30.08,0,0,1,12.91.91c2.85.85,4.91,1.82,5,2.17a39.78,39.78,0,0,0-3.33-7.91c-1.26-2.23-2.4-3.77-5-4.36-2.79-.64-7.63,1-11.65,3.14a31.18,31.18,0,0,0-6.79,4.72s1.36,3.53,3.23,7.41S442.66,868,447.49,869.2Z" transform="translate(-280.2 -305.98)"/><path class="cls-1" d="M484,827.75a5.19,5.19,0,0,0,1.45,2.26c.5.39,1.19.58,1.94,1.21,1.54,1.15,2.86,3.68,4.65,5.94a5.54,5.54,0,0,0,3.42-2.4,10.85,10.85,0,0,0,1.9-6.94c-.19-5.81-3.89-11.77-7.49-15.49a23,23,0,0,1,8.59,8.91,16.07,16.07,0,0,1,1.74,10.59,11.33,11.33,0,0,1-3.52,6.31c-1.26,1.07-2.13,1.33-2.24,1.23,2.47,1.51,6.4,2.13,10.28-1.79a15.31,15.31,0,0,0,3.88-8.82,22,22,0,0,0-1.88-11.48c-3.83-8.28-11.63-11.76-17.55-12.88a25,25,0,0,0-10.47.05s1.26,4.36,2.25,9.48S482.87,825,484,827.75Z" transform="translate(-280.2 -305.98)"/><path class="cls-1" d="M521.88,826.85c-7.14,1.5-12.17,5.56-14.33,9.63s-1.55,7.78.37,9.94c2.06-.91,6.08-3.81,11.33-5.18a41.6,41.6,0,0,1,16.19-1.15,89.84,89.84,0,0,0-18,5.15c-4.09,1.62-6.62,3.34-7,3.13a62.24,62.24,0,0,0,8.34,2.88,15,15,0,0,0,8.07.4c3.44-.73,7.37-3.69,11.75-5.35a21.62,21.62,0,0,1,8.86-1.56,13.21,13.21,0,0,0-.42-3,18,18,0,0,0-3.85-7.18C539,829.24,530.12,825.05,521.88,826.85Z" transform="translate(-280.2 -305.98)"/><path class="cls-1" d="M534.16,906a15.07,15.07,0,0,0-10.07,10.65c1.16,1.34,4.76,2.74,9.32,2.8s10-1.73,13.11-5a14.88,14.88,0,0,1-7.86,7,17.26,17.26,0,0,1-8.08,1.09c-4.51-.51-6.84-2.29-6.81-2.57a11.57,11.57,0,0,0,4.05,8.4c2.69,2.2,7.18,3.8,13.61,1.91a17.76,17.76,0,0,0,9.17-6.88,18.12,18.12,0,0,0,3.24-9.67,18.57,18.57,0,0,0-2.16-9.41,38.89,38.89,0,0,1-8.09,2.19,17.19,17.19,0,0,1-5.67-.16C536.35,906,535.28,905.68,534.16,906Z" transform="translate(-280.2 -305.98)"/><path class="cls-1" d="M461.44,963.5a22.73,22.73,0,0,0,.56-9.45,13.68,13.68,0,0,0-3.69-7.8,8.26,8.26,0,0,0-5.58-2.46,8.78,8.78,0,0,0-5,1.51,18.46,18.46,0,0,1,1.94,3.56,12.23,12.23,0,0,1,.15,6.48c-1,4.66-3.3,9.6-5.1,13.63.85-7.53,2.18-13,2.27-16.28a7.21,7.21,0,0,0-.92-4c-.51-.83-.88-1.2-.76-1.32-1.46,1.83-2.5,4-4.21,5.49a5.81,5.81,0,0,1-2.34,1.36c-.63.32-1.07,1.21-1.46,2.66-.84,3.23,0,8.79.75,13.58a60.28,60.28,0,0,1,1.14,8.88c-.06.13,4.4.16,9.48-2.24S459.52,970.51,461.44,963.5Z" transform="translate(-280.2 -305.98)"/><path class="cls-1" d="M374.45,898.56a19.11,19.11,0,0,0,8.83-5.06,12.87,12.87,0,0,0,3.37-5.78,9,9,0,0,0-2.17-8.56c-1.87.34-5,3.08-9.14,5a17.44,17.44,0,0,1-6.6,1.56,34.77,34.77,0,0,1-6.57-.53,33.63,33.63,0,0,0,13.77-4.92c3.19-1.94,5.72-3.36,6-3.1a22.68,22.68,0,0,0-8.5-2.47l-3.55-.37a6.5,6.5,0,0,0-1.74-.23c-.33.09-1.11,1-2.86,2s-4,2-6.19,3.07a87.75,87.75,0,0,0-8,4.14,40.58,40.58,0,0,0,4.65,8,20.88,20.88,0,0,0,6.79,5.93A16.62,16.62,0,0,0,374.45,898.56Z" transform="translate(-280.2 -305.98)"/><path class="cls-1" d="M399.43,921.05c.88-5.32-.1-9.13-1.78-11.69a10.31,10.31,0,0,0-7-4.47c-1.27,1.33-2.22,5.1-3.25,9.43a92.11,92.11,0,0,1-3.82,12.89c.13-6.88.34-11.91,1.3-16s2.2-6.44,2.53-6.43c-6,.77-11.52,5.51-12.51,11.85-.6,3.47,1.38,7.23,2.35,11.59a53.17,53.17,0,0,1,1.26,8.43,19.24,19.24,0,0,0,9.24-1.6,21.1,21.1,0,0,0,7.45-5.46A18.16,18.16,0,0,0,399.43,921.05Z" transform="translate(-280.2 -305.98)"/><path class="cls-1" d="M313.25,679.5a21.14,21.14,0,0,0,4.66,7.87,13,13,0,0,0,6.95,4,8,8,0,0,0,8.94-4.49c-.63-.57-1.88-1.25-3.21-2.45a13.31,13.31,0,0,1-3.36-5.07c-1.64-4.12-2.3-9.17-3-13.26,3.4,6.33,5.12,11.12,6.71,13.68,1.68,2.85,4,3.66,3.83,4,.33-2.59.2-5.31.89-7.5a6.6,6.6,0,0,1,1.26-2.42c.4-.56.37-1.33,0-2.57-2-5.32-14.49-16.15-14.45-16.16a33.88,33.88,0,0,0-6,7C313.63,666.49,311.07,672.81,313.25,679.5Z" transform="translate(-280.2 -305.98)"/><path class="cls-1" d="M324.67,720.37c2.4-4.34,3.32-6.64,3.66-9s.79-5.1.9-8.07a6.84,6.84,0,0,0-5,.13,18.18,18.18,0,0,0-7.14,4.93c-4.65,4.92-7.95,12.21-9.89,18.12.88-10.36,5.31-19.16,11-23.45a15.18,15.18,0,0,1,7.5-3.24c1.92-.21,2.94.13,3,.26a7.28,7.28,0,0,0-3.33-3.63,10.67,10.67,0,0,0-6.79-.93c-5.58.78-12,5.59-15.71,12.64-4.29,7.94-3.8,16.73-2.67,23.16A104.35,104.35,0,0,0,303,742.38a56.78,56.78,0,0,0,9-7.12C316.76,730.84,322,725.22,324.67,720.37Z" transform="translate(-280.2 -305.98)"/><path class="cls-1" d="M417.52,647.06c-5.28,2.23-9,5.71-10.63,9.19a9.17,9.17,0,0,0,.25,9.22c2.05-.32,6-2.44,10.71-4.17s10.25-3.46,14.71-5a85.75,85.75,0,0,1-16.15,9c-4,1.73-6.77,2.76-7,2.52a22.47,22.47,0,0,0,8.23,3.63,15,15,0,0,0,9.57-1.07C435.28,667,444.44,652,444.3,651.9a51.54,51.54,0,0,0-8.71-4.22C430.52,645.79,423.61,644.47,417.52,647.06Z" transform="translate(-280.2 -305.98)"/><path class="cls-1" d="M400.5,714.61a14.61,14.61,0,0,0-1.64-8.51,14,14,0,0,0-5.86-5.56c-1.55.82-3.62,4.13-4.85,8.54a41.81,41.81,0,0,0-1.38,14A24.55,24.55,0,0,1,386,705.6c1.51-4.25,3.71-6.22,4-6.11a11.37,11.37,0,0,0-9,2.13c-2.75,2.1-5,6-5.35,11.18-.42,5.88,2.93,11.47,6.28,15.22a43.59,43.59,0,0,0,6.71,6.13C388.66,734.15,399.89,722.29,400.5,714.61Z" transform="translate(-280.2 -305.98)"/><path class="cls-1" d="M361.77,635.79a14.49,14.49,0,0,0,4,5.16,20.72,20.72,0,0,0,6.73,4.27c1.43-1.05,3.17-5,2.64-10.07s-3.51-10.46-6.55-13.92a21.62,21.62,0,0,1,7.65,8,17.59,17.59,0,0,1,2.16,9c-.27,5.3-2.51,7.77-2.73,7.7a9.67,9.67,0,0,0,8.54-4.46,13.64,13.64,0,0,0,2.12-6.85,20,20,0,0,0-1.84-9.33,18.69,18.69,0,0,0-7.07-8,26.13,26.13,0,0,0-8.27-3.3,50.7,50.7,0,0,0-9.38-1.09,61.68,61.68,0,0,0,.06,9.51c.18,2.58.46,5.35.77,7.74A23.93,23.93,0,0,0,361.77,635.79Z" transform="translate(-280.2 -305.98)"/><path class="cls-1" d="M422.84,548.28a20.46,20.46,0,0,0,7.35,4.85,13,13,0,0,0,7.79.64,7.91,7.91,0,0,0,6.22-7.58c-.82-.34-2.24-.52-3.9-1.12a14.71,14.71,0,0,1-5-3.18c-3.16-2.94-5.9-7.08-8.34-10.33,5.82,4,9.34,7.45,11.83,9.08,2.6,1.84,5,2,5.05,2.31-.77-2.61-2-5.19-2.25-7.5a7.6,7.6,0,0,1,.13-2.76c.06-.71-.29-1.4-1.2-2.32-2-2-7.12-3.91-11.71-5.34a46.69,46.69,0,0,0-8.68-1.95,60.07,60.07,0,0,0-1.82,8.81C417.77,536.83,418.11,543.38,422.84,548.28Z" transform="translate(-280.2 -305.98)"/><path class="cls-1" d="M530,570.87c-6.79-2.68-12.46-2.57-16.45-1.22s-6.25,4-6.84,6.91c2,1.18,7.12,2.31,12.75,4.52a59.94,59.94,0,0,1,16,8.79,107.66,107.66,0,0,0-11.41-4.11l-9-2.82c-5.06-1.63-8.33-2.72-8.35-3.09a19.17,19.17,0,0,0,4.57,8.38,25.09,25.09,0,0,0,9.52,6.19c4.57,1.85,9.81,1.59,14.51,2.81a19.56,19.56,0,0,1,8.35,4.5,13.94,13.94,0,0,0,1.37-3,17.91,17.91,0,0,0,.45-8.89,25.8,25.8,0,0,0-5.3-11.26A25.37,25.37,0,0,0,530,570.87Z" transform="translate(-280.2 -305.98)"/><path class="cls-1" d="M499,532.49a15,15,0,0,0,2,7.48,41.36,41.36,0,0,0,4.79,6.22,5.91,5.91,0,0,0,3.24-2.55,17.23,17.23,0,0,0,2.73-6.49,29.74,29.74,0,0,0-1.42-16.55,22.66,22.66,0,0,1,3.53,20.68,14.21,14.21,0,0,1-3.44,5.59c-1.12,1.09-2,1.41-2.07,1.32,2.59,1.39,6.42,1.39,9.91-1.63s6.08-8.63,5.64-15.61c-.43-7.86-6-14.82-11.48-18a18.73,18.73,0,0,0-7.28-2.66,11.81,11.81,0,0,0-3,0,26.37,26.37,0,0,1-.57,9C500.64,523.93,498.74,528.73,499,532.49Z" transform="translate(-280.2 -305.98)"/><path class="cls-1" d="M508.69,468.87a22,22,0,0,0,.82,9.43,14.8,14.8,0,0,0,3.5,5.93,8.6,8.6,0,0,0,8.64,2.39c.45-2-.54-6.3-.29-11.21s1.9-10.13,3.67-14.27a100.45,100.45,0,0,0-.51,16.85c.23,4.07.41,7.08.06,7.23a24.19,24.19,0,0,0,6-6.68c1.53-2.5,2.62-4.32,2.88-6.58a21.62,21.62,0,0,0-.55-5.3l-1.18-7.34c-.76-5-1.68-9.26-1.71-9.24a36.45,36.45,0,0,0-9.13,3,23.68,23.68,0,0,0-7.48,5.58A19,19,0,0,0,508.69,468.87Z" transform="translate(-280.2 -305.98)"/><path class="cls-1" d="M571.09,433.45c1.87,1,2.86.6,4.43-.34A51.41,51.41,0,0,1,582.4,431a3.88,3.88,0,0,0,.28-3.06,9.64,9.64,0,0,0-2.53-4.12,22.43,22.43,0,0,0-9.84-5.51c6-.84,11.12,1.67,13.59,5s1.73,6.42,1.48,6.43a8.65,8.65,0,0,0,4.71-8.11c-.27-4.08-3.2-8.48-7.55-10.69-4.92-2.55-10.54-.92-14.5,1.29a31.61,31.61,0,0,0-6.63,4.94s1.51,3.52,3.47,7.31S569.05,432.35,571.09,433.45Z" transform="translate(-280.2 -305.98)"/><path class="cls-1" d="M562.13,466.91c6.09,2.15,12.37.93,15.58-1.71a7.87,7.87,0,0,0,3-8.71c-1.91-.39-6,.25-10.24-1s-8.49-3.61-11.88-5.8c6.84,1.61,11.22,2.65,14.57,3.1s5.95.39,6.11.73c-1.73-2.46-4-4.66-5.39-6.65s-1.89-3.39-3.89-4-7,0-11.6.16l-8.65.36a27.25,27.25,0,0,0,.6,9.32,23,23,0,0,0,3.66,8.09A16.92,16.92,0,0,0,562.13,466.91Z" transform="translate(-280.2 -305.98)"/><path class="cls-1" d="M663.08,473.35A12.22,12.22,0,0,0,655.5,460c-1.49.81-3.32,3.82-4.62,7.72a34.08,34.08,0,0,0-1.74,12.55,20.8,20.8,0,0,1-.45-15.75c1.43-3.69,3.4-5.49,3.69-5.41-5.78-.81-12.91,1.88-14.1,11.32-.63,5.25,2.52,11.1,6.07,14.63a24,24,0,0,0,7.22,5.08s2.41-3.15,5.19-6.47S662.65,476.91,663.08,473.35Z" transform="translate(-280.2 -305.98)"/><path class="cls-1" d="M658.87,388.45a12.45,12.45,0,0,0,.33,3.77c.26.79.93,1,1.39,1.92,1,1.65,1.39,4.09,2.11,6.53a4.92,4.92,0,0,0,4.3-.51,10.42,10.42,0,0,0,4.15-5.87c1.8-5.44,1.34-12.26,0-17.33,4.42,7.74,4.64,16.42,1.36,22.06a9,9,0,0,1-5.65,4.51,4,4,0,0,1-2.78-.08,8.58,8.58,0,0,0,4.15,3.08,8.77,8.77,0,0,0,6.62-.57,12.17,12.17,0,0,0,3.6-2.66,18.84,18.84,0,0,0,3-4.26,23,23,0,0,0,2.43-10.3c0-8.22-4.74-15-9.5-19.11a23.85,23.85,0,0,0-6.63-4.14,9.77,9.77,0,0,0-3-.74,14.73,14.73,0,0,1-.34,2.83,60.67,60.67,0,0,1-1.8,6.37C661,378.84,658.94,384.5,658.87,388.45Z" transform="translate(-280.2 -305.98)"/><path class="cls-1" d="M612.32,381.39c-.3,3.22.55,5.26,2.07,6.85a20.05,20.05,0,0,0,6.4,4c1.46-.46,3-3,4-6.26a60.13,60.13,0,0,0,1.91-10.08c1.79,5.19,1.69,9.44.54,12.66s-3.06,4.76-3.33,4.63a11.53,11.53,0,0,0,8.64-1.63,10.65,10.65,0,0,0,4.62-7.79c.33-3.57-2.42-6.76-4.86-9.85a75.67,75.67,0,0,1-4.54-6.13,19.77,19.77,0,0,0-7.56,3C616.33,373.34,612.64,377.69,612.32,381.39Z" transform="translate(-280.2 -305.98)"/><path class="cls-1" d="M695.08,555.18c-4.26,3-5.67,8.68-3.26,14,1.55.52,4.53-.06,7.78-1.38a23.84,23.84,0,0,0,9-6.19,15.77,15.77,0,0,1-9.48,9.78c-3.14,1.14-5.44.88-5.61.62,3.69,4.61,9.26,8.49,16,3.8,3.76-2.64,6.06-9,5.62-14.33a13.8,13.8,0,0,0-1.8-6.13,10.77,10.77,0,0,0-1.51-2,15.67,15.67,0,0,1-7.14,1.19C701.07,554.42,697.49,553.44,695.08,555.18Z" transform="translate(-280.2 -305.98)"/><path class="cls-1" d="M659.3,519.55c-4,5.61-5.16,11.31-4.56,15.39s2.8,6.66,5.49,7.73c1.5-1.61,3.4-6.16,6.58-10.72a76.12,76.12,0,0,1,11.1-12.72l-10.12,17.11c-2.39,4.13-4,6.95-4.37,6.9a21.33,21.33,0,0,0,8.84-2.45,19.44,19.44,0,0,0,7.34-6.51c2.45-3.55,3.82-9.17,5.57-14.24s3.39-9.29,3.37-9.3a28,28,0,0,0-10.48-1.11C672,510,663.85,513,659.3,519.55Z" transform="translate(-280.2 -305.98)"/><path class="cls-1" d="M837.57,437.25a8.76,8.76,0,0,0,1-7.1,15.84,15.84,0,0,0-4.14-6.51c-1.54,0-4,1.61-6.26,4.17a39.22,39.22,0,0,0-5.72,8.64c.13-5.67,2.26-9.67,4.59-12s4.62-3,4.85-2.81a13,13,0,0,0-8.46-2.11,10,10,0,0,0-7.47,5.17c-1.94,3.45-.91,8.2.42,12.17s2.92,7.31,2.92,7.32a33,33,0,0,0,7.88-1C831.33,442.14,835.92,440.17,837.57,437.25Z" transform="translate(-280.2 -305.98)"/><path class="cls-1" d="M825.16,397.66c0,4.14,1.54,7.43,3.68,9.21a9.59,9.59,0,0,0,7.74,1.93c.94-1.37,1.17-4.4,1.56-7.75s.88-7.09,1-10.21a26.13,26.13,0,0,1,1.91,12c-.25,2.91-1.05,5-1.38,5.12a25,25,0,0,0,7.26-4.5c1.92-1.79,3.13-3.46,3.14-5.81,0-2.55-2.73-6.29-5.48-9.58a45,45,0,0,0-5.62-5.61,49.78,49.78,0,0,0-6.76,4.07C828.82,389,825.16,392.83,825.16,397.66Z" transform="translate(-280.2 -305.98)"/><path class="cls-1" d="M883.88,430.66c-5.63-3.89-11.25-4.38-15.07-3.17s-5.83,4-6.14,6.92c1.74,1.09,5.86,2.17,9.81,4.69a30.32,30.32,0,0,1,9.93,9.69,50.68,50.68,0,0,0-7.57-5c-2.27-1.24-4.26-2.27-6-3.11-3.4-1.69-5.93-2.67-6-3a61.57,61.57,0,0,0,2.91,8.26c1,2.44,2.08,4.29,4,5.58,2,1.44,5.65.87,9.32,2.6,3.68,1.58,6.06,5.51,6,5.45a11.88,11.88,0,0,0,2.25-1.67,14.16,14.16,0,0,0,3.88-6.58,19.3,19.3,0,0,0-.39-11.11A19.05,19.05,0,0,0,883.88,430.66Z" transform="translate(-280.2 -305.98)"/><path class="cls-1" d="M816.71,475.86c5.33-2.52,7.72-6.54,8.12-9.62a8.88,8.88,0,0,0-3-7.74c-1.69.22-4.27,2.19-7.43,3.7a26.9,26.9,0,0,1-9.92,2.61c4.85-2.83,7.2-4.7,9.81-6.11s4.62-2.32,4.89-2.11a36.64,36.64,0,0,0-7.94-3c-2.44-.59-4.08-1.14-4.87-.78-.47.21-.74,1.13-1.47,2.41a23.37,23.37,0,0,1-3.2,4.28,62.23,62.23,0,0,1-5.72,5.21,19.57,19.57,0,0,0,4.21,7.36,15.46,15.46,0,0,0,7,4.39A13.7,13.7,0,0,0,816.71,475.86Z" transform="translate(-280.2 -305.98)"/><path class="cls-1" d="M782.07,445.14a23.05,23.05,0,0,0,7.3-.83,13.65,13.65,0,0,0,6.86-4.62c-.66-1.76-3.75-4.72-8.37-6.72a19.28,19.28,0,0,0-7.82-1.53,17.49,17.49,0,0,0-7.59,2,15.39,15.39,0,0,1,10.7-4.32,18.28,18.28,0,0,1,8.8,2.29c4.37,2.45,6,5.18,5.88,5.41a11.63,11.63,0,0,0-.81-9.54,13.17,13.17,0,0,0-4.49-4.64,18.8,18.8,0,0,0-21.16,1,19.72,19.72,0,0,0-6.32,8.23,27.25,27.25,0,0,0-2,9.76c0,.06,4.34.15,9.09.67a25.36,25.36,0,0,1,6.34,1.45C780.16,444.38,781,445.09,782.07,445.14Z" transform="translate(-280.2 -305.98)"/><path class="cls-1" d="M790.17,361c.77,6.09,3,10.17,5.62,12.56a9.73,9.73,0,0,0,8.44,2.61c.6-2,0-6.42-.44-11.58a91.18,91.18,0,0,1-.2-15.71c1.74,7.73,3.15,13.6,3.64,18.3s.37,7.74,0,7.86c5.18-3.19,8.67-9.5,7.65-17.13-.51-4.28-3.45-8.24-5.45-12.55a36.61,36.61,0,0,1-2.88-8.6,18.19,18.19,0,0,0-9.08,5C792.89,346,789.24,354,790.17,361Z" transform="translate(-280.2 -305.98)"/><path class="cls-1" d="M785.46,407.89a11,11,0,0,0,6.74-2.74,10.57,10.57,0,0,0,3.35-7.28c-1.15-1.19-3.87-2.2-7.1-3s-7.32-1-10.41.61a11.22,11.22,0,0,1,7.06-3.65,14.52,14.52,0,0,1,5.61.33c2.92.8,4.65,2.09,4.7,2.41a22.6,22.6,0,0,0-2.85-8.14c-1.48-2.22-3.44-3.92-7.8-3.86a14.5,14.5,0,0,0-8.15,3.28,13.73,13.73,0,0,0-4.9,7.61,12.12,12.12,0,0,0,.1,6.27,12.56,12.56,0,0,0,.85,2.26c-.07.1,3.92-.39,7,1.21a8,8,0,0,1,3.39,3A2.57,2.57,0,0,0,785.46,407.89Z" transform="translate(-280.2 -305.98)"/><path class="cls-1" d="M984.28,477.94c1.94-4.77,1.81-9.84.06-13.32a8.81,8.81,0,0,0-3.43-3.81,7.27,7.27,0,0,0-4.23-.83,34.21,34.21,0,0,0-1.13,3.9,41.26,41.26,0,0,1-1.9,5.28c-1.61,3.72-3.91,7.67-5.71,10.95a67.24,67.24,0,0,1,3.52-13.94c1.14-3,1.75-5.21,2.08-5.36-2.72,1.24-5.4,2.66-7.63,3.43s-3.78,1.69-4.77,4.22c-1.07,2.73-.3,7.62.41,12.09s1.54,8.33,1.55,8.33a28.51,28.51,0,0,0,8.66-1.05C976.45,486.56,982.05,483.51,984.28,477.94Z" transform="translate(-280.2 -305.98)"/><path class="cls-1" d="M949.58,420.69c4.78,1.16,9-1.32,12.35-6.15-.34-1.57-2.58-3.85-5.85-5.55a24.72,24.72,0,0,0-10.91-2.9,16,16,0,0,1,14.13,1.08c3.11,1.92,4.27,4.19,4.12,4.46a12.65,12.65,0,0,0,.1-9,11.33,11.33,0,0,0-8.22-6.6c-4.9-1.22-10.6,1.51-14,4.79a22.51,22.51,0,0,0-5,6.83s2.68,2.73,5.34,5.83S946.84,420,949.58,420.69Z" transform="translate(-280.2 -305.98)"/><path class="cls-1" d="M993.26,384.55a19.43,19.43,0,0,0-3.18,8c-.32,2.44,0,4.06.68,4.95s1.62,1.35,2.48,2.28,1.79,1.82,2.81,2.77a3.88,3.88,0,0,0,2.93-1.84c1-1.28,1.78-3.23,2.87-5.05a30.44,30.44,0,0,1,8.62-9.24,104.45,104.45,0,0,0-6.9,12.7,14,14,0,0,1-2.93,4.39c-1,.88-1.89,1-2,.94a8.12,8.12,0,0,0,9.65-1.14c1.53-1.2,2.73-2.26,3.62-2.83a5.3,5.3,0,0,0,2-1.71c.56-.83.65-2.1.84-3.75a26.29,26.29,0,0,1,1.14-5.54,22.81,22.81,0,0,1,4-7,14.48,14.48,0,0,0-8.15-4.89,18,18,0,0,0-9.74.49A16.86,16.86,0,0,0,993.26,384.55Z" transform="translate(-280.2 -305.98)"/><path class="cls-1" d="M1038,420.92a14.7,14.7,0,0,0-1.73,6.91,35,35,0,0,0,.84,7.87c1.62.71,6-.47,9.67-4.43a25.13,25.13,0,0,0,6.49-15,20.58,20.58,0,0,1-1.13,11.82,19.19,19.19,0,0,1-5.67,7.75c-4.42,3.49-8.13,3.12-8.13,2.87a8.92,8.92,0,0,0,9.14,3.94c4.35-.56,9.75-4,12.91-10.59a21.08,21.08,0,0,0,1.79-11.72,23.3,23.3,0,0,0-3.79-10.12c-3.73-5.48-8.3-6.64-8.18-6.63a26.65,26.65,0,0,1-4.24,7.86C1043.19,415.19,1039.42,418,1038,420.92Z" transform="translate(-280.2 -305.98)"/><path class="cls-1" d="M1065.1,449.37a26.49,26.49,0,0,0-8.82-5.88,17.14,17.14,0,0,0-9.82-1.08,9.61,9.61,0,0,0-5.83,3.7,7.4,7.4,0,0,0-1.3,4.92,24,24,0,0,1,5.29.22,16.1,16.1,0,0,1,7,3.71c4.44,3.76,8.37,9.21,11.56,13.6-7-5.77-12.14-10.65-15.87-12.76a10.23,10.23,0,0,0-4.88-1.56c-1.29-.06-2,.08-2.09-.1,1.35,2.3,3.35,4.49,4,6.85.44,1.18.11,2.05.58,3a12.78,12.78,0,0,0,2.8,3.53c3.23,3.16,9.15,6.18,14.16,8.66s9.11,4.48,9.1,4.54a30.07,30.07,0,0,0,1.7-10.89C1072.64,463.52,1071,455.3,1065.1,449.37Z" transform="translate(-280.2 -305.98)"/><path class="cls-1" d="M1041.83,524.84a19,19,0,0,0-5.3,14c1.57.92,6,.83,10.59-1.56a19.19,19.19,0,0,0,6.35-5.18,14.25,14.25,0,0,0,3.08-7.66,14.35,14.35,0,0,1-3.38,11.63,18.35,18.35,0,0,1-7.7,5.43c-5,1.79-8.23.82-8.26.56a10.09,10.09,0,0,0,7.55,6.13c3.89.73,9.55-.13,15.09-5.8a20,20,0,0,0,5.29-13,17.05,17.05,0,0,0-4.12-11.88,14.91,14.91,0,0,0-6.49-4.28,14.51,14.51,0,0,0-2.8-.66s-.15,1.1-.52,2.73a15.91,15.91,0,0,1-2.23,5.49,6.65,6.65,0,0,1-4.12,2.87C1043.56,523.89,1042.62,524,1041.83,524.84Z" transform="translate(-280.2 -305.98)"/><path class="cls-1" d="M1060.05,548.12a23.92,23.92,0,0,0-9.85.81,12,12,0,0,0-6.71,5.41c1.09,1.68,4.93,4.16,10,5.94s11.74,2.59,16.7.13c-3.53,3-8.1,3.78-11.7,3.69a25.38,25.38,0,0,1-9.15-2c-4.79-2-7.07-4.41-7-4.69a12.48,12.48,0,0,0,2.35,9.38c2.26,3,6.15,5.82,13.11,6.54a21.63,21.63,0,0,0,12.52-2.91,18.42,18.42,0,0,0,8.31-9.8,14.92,14.92,0,0,0,.37-8.27,14.06,14.06,0,0,0-1-2.83s-1,.54-2.56,1.19a13.14,13.14,0,0,1-5.79,1.1,10.39,10.39,0,0,1-4.94-2A10.19,10.19,0,0,0,1060.05,548.12Z" transform="translate(-280.2 -305.98)"/><path class="cls-1" d="M1034.6,600c1.43-5.71.28-10.4-1.84-13.31a8,8,0,0,0-8-3.48c-.67,1.8-.84,5.5-1.9,9.45a35.32,35.32,0,0,1-4.77,11.11c.67-3.09.9-5.63,1.22-7.89s.62-4.18.92-5.85c.64-3.28,1.13-5.65,1.45-5.8a69,69,0,0,0-7.24,4.51c-2,1.48-3.5,2.92-4,4.9-.61,2.15,1.49,5,1.91,8.7s-1.7,7.42-1.65,7.35a10.36,10.36,0,0,0,2.15,1.54,12,12,0,0,0,6.93,1.29,17.31,17.31,0,0,0,9.17-3.94A16.82,16.82,0,0,0,1034.6,600Z" transform="translate(-280.2 -305.98)"/><path class="cls-1" d="M986,568.88c2.3.67,3.93.47,5.17-.84,1.49-1.14,3.89-2.08,6.33-3.29a3.77,3.77,0,0,0-.38-3.28,11.14,11.14,0,0,0-3.72-3.72,23.11,23.11,0,0,0-11.81-3.58,16.08,16.08,0,0,1,15.56,2.41,8.91,8.91,0,0,1,3,4.31,2.86,2.86,0,0,1,0,2.12,8.49,8.49,0,0,0,2.86-9.28,15,15,0,0,0-10-9.16c-5.63-1.67-12,.89-16.14,4.54a14.09,14.09,0,0,0-4.08,5.5,9.37,9.37,0,0,0-.55,2.64,13,13,0,0,1,2.12,1,15.9,15.9,0,0,1,3.84,3.47C980.82,564.61,983.38,568.1,986,568.88Z" transform="translate(-280.2 -305.98)"/><path class="cls-1" d="M838.91,764.44c3.5,3.3,7.52,5.19,11,5.36a9,9,0,0,0,8-3.57c-.81-1.8-3.71-4.69-6.78-8.22a111.69,111.69,0,0,0-10-10.4,41.46,41.46,0,0,1,14.09,10.12c2.79,3,4.39,5.27,4.26,5.6a22.29,22.29,0,0,0,.89-9,13.21,13.21,0,0,0-4.52-8.56c-3.41-3.21-9.75-5.08-15.14-5.41a26.06,26.06,0,0,0-9.42,1s.77,4.12,1.56,8.87S834.86,760.62,838.91,764.44Z" transform="translate(-280.2 -305.98)"/><path class="cls-1" d="M868.65,760.55a4.59,4.59,0,0,0,.16,2.66,2.94,2.94,0,0,0,.28.4,1.54,1.54,0,0,1,.46.21,7.28,7.28,0,0,1,.82.93c1.15,1.5,2,3.73,3.15,6a3.85,3.85,0,0,0,3.45-.16,8.78,8.78,0,0,0,3.49-4,25,25,0,0,0,2-12.5c2.85,6.15,2.11,12.38-.64,16.33a7.22,7.22,0,0,1-4.38,3.14,3.34,3.34,0,0,1-2.24-.22c2,2.36,5.49,4.51,9.53,3.06a9.78,9.78,0,0,0,3-1.67,11.7,11.7,0,0,0,1.46-1.45,18.58,18.58,0,0,0,1.24-1.57,17.23,17.23,0,0,0,2.88-7.33c.88-6.07-2.5-11.7-6.17-15.28a22,22,0,0,0-5.29-3.85,8.84,8.84,0,0,0-2.48-.79,12.9,12.9,0,0,1-1.18,2.16c-.83,1.18-2.05,2.74-3.39,4.37C872.15,754.26,869.07,757.87,868.65,760.55Z" transform="translate(-280.2 -305.98)"/><path class="cls-1" d="M898.2,804c-4-5.72-9.42-9.24-14.34-10a11.05,11.05,0,0,0-6.33.64,6.35,6.35,0,0,0-3.28,3.37c.93.76,2.67,1.75,4.42,3.27a37.06,37.06,0,0,1,5.37,5.82A88.59,88.59,0,0,1,893,822.45c-5.85-6.86-10.13-12.28-13.41-15.82s-5.82-5.06-5.84-5.41c0,1.52.29,3,.42,4.55l.28,4.26c.2,2.71,1,5.27,3.55,8.79,2.76,3.86,7.91,7.41,12.19,10.68a48.43,48.43,0,0,1,7.46,6.46,14.19,14.19,0,0,0,1.78-2.61,27.29,27.29,0,0,0,2.66-7.65C903.35,819.29,902.88,810.6,898.2,804Z" transform="translate(-280.2 -305.98)"/><path class="cls-1" d="M872.41,820.86a8,8,0,0,0-1.12-6,22.27,22.27,0,0,0-5-5.77c-1.53.14-4,2.23-5.6,5.62a26.52,26.52,0,0,0-2.54,11.15,16.39,16.39,0,0,1,.76-14.46c2-3.29,4.44-4.27,4.66-4.1a10.63,10.63,0,0,0-8.93-.46,12.13,12.13,0,0,0-6.71,9.14c-1,5.23,1.94,10.26,5,13.54a40.59,40.59,0,0,0,6.2,5.42C859.19,835,871.34,825.8,872.41,820.86Z" transform="translate(-280.2 -305.98)"/><path class="cls-1" d="M809.33,807.48a14.08,14.08,0,0,0,1.07-7.33,17.41,17.41,0,0,0-2.78-7.53c-1.74-.08-5.18,1.89-8.06,5.6a25.11,25.11,0,0,0-5.2,13.48,19.24,19.24,0,0,1,.41-10.5A18.94,18.94,0,0,1,799,794c3.28-3.42,6.29-4.06,6.45-3.84a10.35,10.35,0,0,0-9.12-2.11c-3.56.86-7.63,3.9-10,9.67a18.49,18.49,0,0,0-.92,10.3,21.89,21.89,0,0,0,3.73,8.74,20.33,20.33,0,0,0,7.2,6.32,61,61,0,0,1,5.27-6.86C804.56,812.8,808.17,810.27,809.33,807.48Z" transform="translate(-280.2 -305.98)"/><path class="cls-1" d="M786.51,737.23c2.1,4.8,5.87,8.52,9.86,9.87,4.22,1.55,7.28-.09,9-2.42-.44-.89-1.42-2-2.39-3.57a35.19,35.19,0,0,1-2.7-5.36c-1.66-4-3-8.78-4.39-12.61A69.38,69.38,0,0,1,804,736.39c.81,1.56,1.38,2.76,1.94,3.68s.92,1.5.84,1.66c.87-2.85,1.31-6,2.46-8.07a7.4,7.4,0,0,0,0-6.9c-2.79-6.27-17.37-14-17.47-13.66a56.92,56.92,0,0,0-4.26,7.84C785.55,725.47,784,731.64,786.51,737.23Z" transform="translate(-280.2 -305.98)"/><path class="cls-1" d="M863.55,687c1.13,3,2.23,4.32,3.92,5.55l6.12,4.47a5.11,5.11,0,0,0,2.56-3,14.46,14.46,0,0,0,.87-6.76,28.58,28.58,0,0,0-6.14-14.88c6.92,4.83,9.78,12.6,9.33,18.16a12.66,12.66,0,0,1-2,6.25c-.87,1.3-1.65,1.75-1.76,1.7,2.77.88,6.63.09,9.32-3.94s3.49-10.49.94-16.89c-2.82-7.25-9.92-11.68-15.84-13.06a20.79,20.79,0,0,0-7.45-.52,13.54,13.54,0,0,0-2.82.67,34.23,34.23,0,0,1,1.56,8.91C862.57,678.46,862.3,683.73,863.55,687Z" transform="translate(-280.2 -305.98)"/><path class="cls-1" d="M844.34,700.37c5.79,2.83,10.72,1.21,14.79-3-.16-1.7-2.39-4.45-5.63-6.95a34.37,34.37,0,0,0-11.17-5.76,20.48,20.48,0,0,1,14.87,4.68c3,2.58,4.06,5.15,3.86,5.39,2.91-5.19,2.25-13.22-6-17.28-4.61-2.24-11-1.22-15.65,1a18.27,18.27,0,0,0-7.09,5.54,46.08,46.08,0,0,1,4.44,6.83C838.83,694.58,841,698.77,844.34,700.37Z" transform="translate(-280.2 -305.98)"/><path class="cls-1" d="M1063.39,722.56a12.62,12.62,0,0,0-6.8,6.1,5.73,5.73,0,0,0,.35,5.82c1.29-.28,3.71-1.71,6.68-2.9a45,45,0,0,1,9.28-2.77c-4.32,2.32-7.54,4.16-10.11,5.34s-4.2,1.9-4.38,1.76a14.92,14.92,0,0,0,5.26,2.09,9.78,9.78,0,0,0,5.82-.74c2.33-1,4.23-3.45,6.37-5.34a13.18,13.18,0,0,1,4.69-2.84,9.59,9.59,0,0,0-4.26-5.12C1072.9,721.71,1067.51,720.75,1063.39,722.56Z" transform="translate(-280.2 -305.98)"/><path class="cls-1" d="M1060.55,769.06c.35-5.89-1.93-10.94-5.07-13.51a7.23,7.23,0,0,0-9-.88c.13,1.9,1.3,5.57,1,9.6a41.15,41.15,0,0,1-2.33,11.85l-.81-13.68c-.11-3-.61-5.35-.36-5.63-1.93,2.27-3.63,4.92-5.43,6.37s-2.94,2.52-3,4.47c-.11,2.1,2.22,5.41,3.56,9.14a19.84,19.84,0,0,1,1.24,5.19,18.24,18.24,0,0,1,0,2.48,9.32,9.32,0,0,0,2.56.51,14.77,14.77,0,0,0,6.66-1.28C1054.83,781.57,1060.21,775.88,1060.55,769.06Z" transform="translate(-280.2 -305.98)"/><path class="cls-1" d="M1005.6,727.9a6.14,6.14,0,0,0,5.54-.52,61.62,61.62,0,0,1,6.49-3.41,4.14,4.14,0,0,0-.6-3.23,12.25,12.25,0,0,0-3.81-3.84,24.42,24.42,0,0,0-12-3.84c6.49-2.08,12.54-.15,15.84,2.76a10.28,10.28,0,0,1,3.1,4.29c.41,1.22.32,2,.21,2.06a8.43,8.43,0,0,0,2.49-9.26c-1.19-3.91-4.84-7.69-10-9.23-5.78-1.8-12.06.78-16,4.07a17.91,17.91,0,0,0-5.58,7.13,43.74,43.74,0,0,1,5.91,5.54C1000.08,723.5,1003,727.07,1005.6,727.9Z" transform="translate(-280.2 -305.98)"/><path class="cls-1" d="M1016.92,690.55c-.74,5.4.34,9.49,2.2,12.2a9.6,9.6,0,0,0,7.42,4.24c1.09-1.56,1.74-5.5,2.65-10a104.84,104.84,0,0,1,3.44-13.38c.13,7.05,0,12.31-.8,16.4s-1.73,6.62-2.07,6.66c5.82-1.63,11-5.93,11.86-12.52.53-3.71-1.51-7.72-2.69-11.87a26.3,26.3,0,0,1-1.15-8.3,15.29,15.29,0,0,0-9.54,1.75C1023,678.32,1017.74,684.35,1016.92,690.55Z" transform="translate(-280.2 -305.98)"/><path class="cls-1" d="M1065.92,692.28c-.15,2.74,2.23,7.76,7.18,10.73,1.54-.44,3.7-2.76,5.12-6.21a15.87,15.87,0,0,0,.27-11.52,12.47,12.47,0,0,1,3.21,8.08,13.69,13.69,0,0,1-1.47,6.6c-1.73,3.33-3.92,4.53-4.18,4.42a12,12,0,0,0,8.84-.34c2.78-1.38,5.51-4.47,5.93-10.21a14.74,14.74,0,0,0-2.76-9.24,15.57,15.57,0,0,0-6.6-5.32,18.57,18.57,0,0,0-8.35-1.41,59.53,59.53,0,0,1-2.66,7.37,19.88,19.88,0,0,1-2.82,4.52C1066.7,690.88,1066,691.49,1065.92,692.28Z" transform="translate(-280.2 -305.98)"/><path class="cls-1" d="M1161,638.83c-1.48,5-1,8.67.35,11.34a10.7,10.7,0,0,0,6.36,5.24c3-2,5.68-14,9.82-20.2-.67,3.17-.92,5.93-1.44,8.44a39.79,39.79,0,0,1-1.8,6.54c-1.36,3.68-3.06,5.89-3.39,5.82,6,.22,12.23-3.69,13.95-9.72a8,8,0,0,0-.17-4.81,14.65,14.65,0,0,0-.93-2.16,7.06,7.06,0,0,1-.53-2.5,6.92,6.92,0,0,1,1.27-4.24,7.72,7.72,0,0,1,1.27-1.37,11.36,11.36,0,0,0-2.11-2.36,10.69,10.69,0,0,0-7.31-2.54,13.15,13.15,0,0,0-5.09,1.23,20.73,20.73,0,0,0-4.74,3.16A18.34,18.34,0,0,0,1161,638.83Z" transform="translate(-280.2 -305.98)"/><path class="cls-1" d="M1191.16,660c-5.64-.39-9.86,1.54-12.19,4.06a8.6,8.6,0,0,0-2,8.43c1.77.54,5.35.18,9.31.54a39.84,39.84,0,0,1,11.57,2.62c-6.15.17-10.25.6-13.66.46s-5.72-.31-5.88-.63a39.75,39.75,0,0,0,5.51,6.64c1.87,1.8,3.56,3,5.62,3.14,2.22.18,5-2.32,8.66-3.51a17.66,17.66,0,0,1,7.63-.76,13.47,13.47,0,0,0-.15-9.37,18.26,18.26,0,0,0-5.39-7.76A15.9,15.9,0,0,0,1191.16,660Z" transform="translate(-280.2 -305.98)"/><path class="cls-1" d="M1170.7,699.69a8.52,8.52,0,0,0-3.82-6.25,16.18,16.18,0,0,0-7.31-2.16c-1.21,1-2,3.83-2.1,7.23a59.55,59.55,0,0,0,.76,10.21c-3.09-4.52-4-8.68-3.79-12s1.58-5.32,1.89-5.31a12.78,12.78,0,0,0-7.79,4,10.27,10.27,0,0,0-2.45,8.52c.61,3.57,4.08,5.93,7.25,8.25s6,4.65,6,4.66a20.16,20.16,0,0,0,6.47-5C1168.88,708.43,1171.33,703.29,1170.7,699.69Z" transform="translate(-280.2 -305.98)"/><path class="cls-1" d="M1111.3,656.33a10.81,10.81,0,0,0,5.85-1.57,24,24,0,0,0,6.11-4.81c-.22-1.67-2.82-4.56-7.09-6.12a19.62,19.62,0,0,0-13.8.15,16.07,16.07,0,0,1,17.51-2c4.18,2.2,5.41,5.09,5.23,5.27a10,10,0,0,0-.29-9.51c-1.88-3.3-6.3-6.51-12.79-6.73a17.27,17.27,0,0,0-10.15,3.16,19.39,19.39,0,0,0-6.37,7.38,16.73,16.73,0,0,0-1.71,9.5,29.07,29.07,0,0,1,8.1,1.38,36.47,36.47,0,0,1,5.38,2.39A10,10,0,0,0,1111.3,656.33Z" transform="translate(-280.2 -305.98)"/><path class="cls-1" d="M1118.86,626.81c3,4.84,7.86,5.67,13.45,4.19.78-1.41.49-4.56-.72-8a30.9,30.9,0,0,0-5.52-9.71,17.42,17.42,0,0,1,9.07,10.51c1,3.42.46,5.89.18,6,5.18-2.8,9-9.46,4.63-16.5-2.4-3.88-7.87-5.95-12.55-6.37a19.83,19.83,0,0,0-8.33.8s-.2,3.77-.8,7.82S1117.15,624.05,1118.86,626.81Z" transform="translate(-280.2 -305.98)"/><path class="cls-1" d="M1168.26,605.75c5.1,7.76,11.35,9.45,16.67,7.16.52-3.82-5.6-15.83-10.85-23.22,12.35,9.33,14.13,21.1,13.59,21.45,4.4-4.08,6.58-11.49,1.35-19.44-5.83-8.87-22.47-11.38-22.47-11.38S1162.43,596.87,1168.26,605.75Z" transform="translate(-280.2 -305.98)"/><path class="cls-1" d="M1265,664.89c-6.26-.77-11.57.52-15,2.87s-4.86,5.6-4.5,8.5c2.18.49,7,.34,12.42,1.18a153.25,153.25,0,0,1,16.46,3.43,170,170,0,0,1-19.9-.59c-4.73-.42-7.79-.56-7.94-.9a26.22,26.22,0,0,0,6,6.92,17.81,17.81,0,0,0,9.54,3.73c4.77.57,10.67-1.14,15.83-2.56s9.42-2.61,9.44-2.62a29.85,29.85,0,0,0-5.1-9.26C1278.52,670.79,1272.27,665.75,1265,664.89Z" transform="translate(-280.2 -305.98)"/><path class="cls-1" d="M1238.45,652.44c-1.33,4.63.66,8.86,4.74,13.07,1.61-.06,4.28-2.22,6.34-5.69a22.66,22.66,0,0,0,3.26-12,16.42,16.42,0,0,1,.87,9,16.62,16.62,0,0,1-2.73,6.54c-2.35,3.31-5,4.25-5.16,4.06a10.64,10.64,0,0,0,9,.94c3.16-1.14,6.27-4.08,7.69-9.11,1.65-5.63-1-12.8-5-16.64a13.07,13.07,0,0,0-8.09-4.16,19.27,19.27,0,0,1-4.17,6.47C1242.51,647.83,1239.18,649.79,1238.45,652.44Z" transform="translate(-280.2 -305.98)"/><path class="cls-1" d="M1252.87,722c-5.49-3.28-10.83-4.09-15-3.19s-7,3.65-7.27,6.59a75.49,75.49,0,0,1,11,5.35,77.77,77.77,0,0,1,12.85,9.7c-7.3-3.52-12.91-6.2-16.94-8.34s-6.56-3.11-6.67-3.42a77.1,77.1,0,0,0,2.91,8.36,15.21,15.21,0,0,0,6.46,6.76c3.69,2.21,8.93,2.59,13.32,3.54a16.75,16.75,0,0,1,5.53,2,12.23,12.23,0,0,1,2.1,1.73,9.18,9.18,0,0,0,1.71-2.57,16.08,16.08,0,0,0,1-8.21C1263.21,733.55,1259.17,725.77,1252.87,722Z" transform="translate(-280.2 -305.98)"/><path class="cls-1" d="M1249,818.88a3.59,3.59,0,0,0-.91,2.29,6,6,0,0,1,.46,2.13c.11,1.89-.57,4.22-1,6.79a4.58,4.58,0,0,0,3.37,1.7,8.57,8.57,0,0,0,5.7-1.91c3.86-2.85,6.65-7.89,8-12.08,0,7.6-3.86,14.09-9,16.38a8.14,8.14,0,0,1-6.09.38c-1.39-.5-2-1.22-2-1.36a8.66,8.66,0,0,0,7,7.76,12.35,12.35,0,0,0,8.14-1.45,19.35,19.35,0,0,0,7.05-6.44c4-6.15,3.2-13.5,1.26-18.68a19.11,19.11,0,0,0-5.21-8.14,45.84,45.84,0,0,1-6.9,5.12C1255,813.91,1250.55,816.59,1249,818.88Z" transform="translate(-280.2 -305.98)"/><path class="cls-1" d="M1261.25,930.11c-6.29-5.4-12-6.5-17.35-4.16-.28,1.93,1.66,6.23,5.09,10.51s8.31,8.6,13.26,10.52a23.81,23.81,0,0,1-11.14-4.54,28.71,28.71,0,0,1-6.62-6.7c-3.08-4.37-3.61-7.88-3.33-8-4.32,4-5.48,13.56,4.25,21.95a24,24,0,0,0,22.06,4,11.87,11.87,0,0,0,6.67-5.51,9.69,9.69,0,0,0,1-3.11,10.56,10.56,0,0,1-2.46-.55,8.4,8.4,0,0,1-4.25-3.45C1266.53,937.7,1264.86,933.11,1261.25,930.11Z" transform="translate(-280.2 -305.98)"/><path class="cls-1" d="M1236.88,955c2.7-4.23,3.22-8.49,2.3-11.66a8.58,8.58,0,0,0-5.94-6c-1.4,1.14-3,4.16-5.27,7.23a80.12,80.12,0,0,1-7.32,8.81,58.7,58.7,0,0,1,5.77-12.1c1.75-2.67,3.26-4.46,3.61-4.43a39.34,39.34,0,0,0-8.46,1c-2.48.6-4.37,1.45-5.63,3.43-1.37,2.15-.84,6.24-1.08,10.29a32.5,32.5,0,0,1-1.21,7.78,16,16,0,0,0,8.41,2.56C1227.17,962.16,1233.78,959.93,1236.88,955Z" transform="translate(-280.2 -305.98)"/><path class="cls-1" d="M1179.8,950.38c3.92-5.23,3.48-10.83-.07-15.49-1.69,0-4.7,1.71-7.7,4.42a37.31,37.31,0,0,0-7.77,9.76,21.5,21.5,0,0,1,7.39-13.62c3-2.47,5.55-3.09,5.77-2.87-4.71-3.55-12.12-4.63-17.57,2.59-3,4-3.21,10.35-2.13,15.15a28.64,28.64,0,0,0,3.13,8.22l7.94-2.37C1173,954.82,1177.56,953.37,1179.8,950.38Z" transform="translate(-280.2 -305.98)"/><path class="cls-1" d="M1148.14,905.31c5.65,3.64,11.65,2.05,14.91-2.76-.85-3.16-8-9.68-14-12.8a19.72,19.72,0,0,1,12.3,5.25c2.38,2.26,3.41,4.37,3.26,4.67a18.56,18.56,0,0,0,1.27-8.67,9.46,9.46,0,0,0-4.58-7.2c-3.3-2.1-8.76-1.72-13.1-.42a27.76,27.76,0,0,0-7.48,3.45s.76,3.72,1.75,7.8S1144.92,903.27,1148.14,905.31Z" transform="translate(-280.2 -305.98)"/><path class="cls-1" d="M1191.7,859.07a18.25,18.25,0,0,0-4.48,11.07,8.92,8.92,0,0,0,4,8c1.69-1.14,4.35-4,7.61-7.19a102,102,0,0,0,9.39-10.42A38.33,38.33,0,0,1,1199.3,875c-2.8,2.84-4.77,4.45-5.09,4.38a29.41,29.41,0,0,0,8.69.61c2.77-.35,5.45-1.59,8.09-4.85,2.91-3.59,4.13-9.82,4.16-15.17a23.3,23.3,0,0,0-1.5-9.37c0,.08-3.89.93-8.49,1.78S1195.06,854.93,1191.7,859.07Z" transform="translate(-280.2 -305.98)"/><path class="cls-1" d="M1218.78,902.6c-4.71-2.91-10.85-2.93-15.22,1,.14,1.76,2.08,4.89,5.13,7.92s7.45,5.81,11.59,6.48a16.49,16.49,0,0,1-9.56-1.54,19.64,19.64,0,0,1-6-4.45c-2.77-3.09-3.55-5.72-3.36-6a13.4,13.4,0,0,0-2.17,8.87c.45,3.22,2.27,6.75,7,9.59a17,17,0,0,0,9.49,2.12,18.3,18.3,0,0,0,9.13-3,15.25,15.25,0,0,0,5.92-7.35,24.52,24.52,0,0,1-6-5.3C1222.15,907.75,1221.45,904.14,1218.78,902.6Z" transform="translate(-280.2 -305.98)"/><path class="cls-1" d="M1167.42,870c3.14,5.51,7.13,6.17,12.95,6.85,1.28-1.06,1.61-5.09.22-9.49a29.22,29.22,0,0,0-7.28-12.14,20.6,20.6,0,0,1,11,13.95c1,4.62-.39,7.67-.69,7.59a9.35,9.35,0,0,0,7.05-6.45c1.27-3.67,1-8.54-1.89-13.4-3.21-5.46-10.18-8.76-16.15-9.07a14.88,14.88,0,0,0-7.2,1.17,10,10,0,0,0-2.3,1.57,14,14,0,0,1,1.22,2.23,18.16,18.16,0,0,1,1.12,5.4C1165.84,862.36,1165.61,867,1167.42,870Z" transform="translate(-280.2 -305.98)"/><path class="cls-1" d="M1071.14,1010.35c4.16-3.26,6-7.07,6.18-10.23a9.4,9.4,0,0,0-3.27-7.78c-1.74.4-4.44,2.71-7.7,5a63.41,63.41,0,0,1-10.32,6c4.25-4.61,7.23-7.65,10.07-9.78s5-3.24,5.25-3.06a22.66,22.66,0,0,0-8.42-2.11,10.15,10.15,0,0,0-7,1.83c-2.07,1.61-2.87,5.54-4.79,9.27a43.62,43.62,0,0,1-4.28,6.83,17.69,17.69,0,0,0,7.11,5.5,19.07,19.07,0,0,0,8.55,1.54A15.42,15.42,0,0,0,1071.14,1010.35Z" transform="translate(-280.2 -305.98)"/><path class="cls-1" d="M1065.82,964.55a15.65,15.65,0,0,0,1.69-7,18.83,18.83,0,0,0-1.42-8c-1.77-.31-5.77,1.14-9.21,4.88s-5.71,9.35-6.84,13.8a26.18,26.18,0,0,1,1.65-10.87,18.73,18.73,0,0,1,5.26-7.39c4-3.3,7.29-3.41,7.39-3.2a10,10,0,0,0-9-3.3,13.37,13.37,0,0,0-6.29,2.81,20.08,20.08,0,0,0-5.61,7.09,18.92,18.92,0,0,0-1.72,9.88,32.55,32.55,0,0,0,2,8.23c1.78,4.8,3.56,8.65,3.56,8.68a35,35,0,0,0,8.32-4.83,54,54,0,0,0,6.19-5.57A23.41,23.41,0,0,0,1065.82,964.55Z" transform="translate(-280.2 -305.98)"/><path class="cls-1" d="M1025.51,926.64c1,2.08,2.08,2.72,3.89,3.64s4.06,2.15,6.72,3.28c1.47-.61,3.16-4,2.53-8.47a23.49,23.49,0,0,0-5.8-12.06c6.24,3.36,9.26,9.77,9.09,14.51s-2.5,7-2.7,6.89a8.63,8.63,0,0,0,8.59-4c2.28-3.38,2.81-9.32.15-14.76-3-6.19-9.47-9-14.51-9.57a24.57,24.57,0,0,0-9,.42s.18,4.06.2,8.56S1024.48,924.37,1025.51,926.64Z" transform="translate(-280.2 -305.98)"/><path class="cls-1" d="M982.52,973.86c4.19,4.92,9.81,7.48,14.17,7.37s7.09-2.4,8-5.14c-1.6-1.42-5.65-3.54-9-7.29a71.37,71.37,0,0,1-8.71-12.47c5.81,5.31,9.72,9.36,12.78,12s5.4,4.12,5.37,4.51c-.12-3-.74-6.15-1-8.71s-.75-4.55-2.9-7c-2.34-2.65-7.35-5.1-11.79-7.47l-8.29-4.24a30.93,30.93,0,0,0-3.09,9.43C977.14,960.44,977.63,968.17,982.52,973.86Z" transform="translate(-280.2 -305.98)"/><path class="cls-1" d="M1000.23,1008.33c6.79-5.49,7-12.07,3.58-16.72-1.77,0-4.89,1.7-8.38,3.84s-7.33,4.75-10.33,7.07a32.7,32.7,0,0,1,10.53-10.92c3.17-2,5.7-2.6,5.93-2.35-4.81-3.65-11.35-5.19-16.81-.78-3.08,2.49-4.74,7.52-5.87,12.08a67.69,67.69,0,0,0-1.5,8.49,41.32,41.32,0,0,0,8.38,2.07C990.46,1011.76,996.37,1011.45,1000.23,1008.33Z" transform="translate(-280.2 -305.98)"/><path class="cls-1" d="M1123,1028.15c-5.52-7.21-12.29-7.73-16.88-4.29,0,1.85,1.83,5.14,4,8.87a129,129,0,0,0,7.31,11,35.09,35.09,0,0,1-11.19-11.4c-2-3.36-2.72-6-2.48-6.24a16.48,16.48,0,0,0-3.27,8.39,12.75,12.75,0,0,0,2.78,9.15c5.11,6.75,21.14,8.28,21.14,8.16S1129.19,1036.42,1123,1028.15Z" transform="translate(-280.2 -305.98)"/><path class="cls-1" d="M1129,1000.07c-5.85.82-9.76,2.83-12.22,5.22a11,11,0,0,0-3.45,8.18c3.68,1.86,18.62-.64,28.44-.26-8,2.27-14.41,3.81-19.48,4.1s-8.28-.27-8.33-.61c2.25,5.71,9.23,9.84,18.32,8.48,5.1-.69,9.45-4,13.42-6.15a17.37,17.37,0,0,1,5.6-2.15,14.83,14.83,0,0,1,2.77-.12,10.74,10.74,0,0,0-.47-3.07,16.42,16.42,0,0,0-4.69-6.9C1143.75,1002.07,1135.58,999.14,1129,1000.07Z" transform="translate(-280.2 -305.98)"/><path class="cls-1" d="M1069,1054.42c1.47-10.72-3.28-16.42-8.93-17.25-1.2,1.55-2.13,5.67-3.21,10.42s-2.28,10.16-3.44,14.44a67.22,67.22,0,0,1,.94-17.8c.91-4.31,2.13-7,2.46-7a15.42,15.42,0,0,0-12.5,13.47c-.65,4.44,1.33,9.33,2.78,13.78a40.38,40.38,0,0,1,2.1,8.58,18.11,18.11,0,0,0,9.29-3.43C1063.35,1066.41,1068.11,1060.52,1069,1054.42Z" transform="translate(-280.2 -305.98)"/><path class="cls-1" d="M1041.17,864.17a11.69,11.69,0,0,0,5.77,4.72,17.15,17.15,0,0,0,7.77.81c.93-1.42.86-5.15-.68-9.23a30,30,0,0,0-7.35-11.09,19.81,19.81,0,0,1,11.11,12.44c1.21,4.21.35,7,.06,7.08a10.77,10.77,0,0,0,6.27-6.82c1-3.38.56-7.92-2.41-12.3-3.34-4.94-9.86-7.21-15-7.39a23.21,23.21,0,0,0-8.94,1.26s.58,4,.94,8.47S1039.3,861.39,1041.17,864.17Z" transform="translate(-280.2 -305.98)"/><path class="cls-1" d="M889.36,567.35c-8.63-4.7-14.54-2.58-18,2,1.31,3.59,12.46,10.36,19.55,15.14-7.09-1.82-12.33-4.33-15.92-6.95s-5.29-5-5.14-5.28c-1.92,5.77.17,13.24,7.47,17.23,4.06,2.26,9.31,1.94,13.88,1.8a39.91,39.91,0,0,1,8.61.36,13.71,13.71,0,0,0,.44-2.78,22.48,22.48,0,0,0-.81-7.09C898,576.26,894.26,570.07,889.36,567.35Z" transform="translate(-280.2 -305.98)"/><path class="cls-1" d="M823.78,610.05c-12.27,1.07-17.3,7-17.38,12.8,3.9,1.7,19.58.12,30,1-8.51,1.86-15.42,3-20.71,3s-8.57-.51-8.64-.84c2.32,5.68,8.88,10.06,18.58,9.23,5.43-.4,10.49-3.4,14.93-5.43a24.14,24.14,0,0,1,6-2,14.7,14.7,0,0,1,2.86-.17,10,10,0,0,0-.67-3.11,19,19,0,0,0-4.87-6.88C838.81,612.92,830.77,609.5,823.78,610.05Z" transform="translate(-280.2 -305.98)"/><path class="cls-1" d="M761.11,939c-4,5.56-5.53,11.56-4.91,16.11s3.15,7.33,5.95,8c1.18-2,2.9-6.87,6.26-11.51a95.87,95.87,0,0,1,11.43-13.19c-4.45,7.73-8.09,13.43-10.51,17.65s-3.56,7.11-4,7.14a39.56,39.56,0,0,0,8.52-2.88,17.76,17.76,0,0,0,7.37-6.42c2.73-3.82,4.38-9.86,6-15.09s3.17-9.52,3.19-9.53a26.55,26.55,0,0,0-10.73-.56C773.58,929.45,765.73,932.51,761.11,939Z" transform="translate(-280.2 -305.98)"/><path class="cls-1" d="M804.05,957.15c-13-1.32-20.64,4.46-20.83,10.44,2.24.78,7.39,1.21,13.4,2.11s12.85,2.06,18.28,3.34a149.92,149.92,0,0,1-22.25-.61c-5.42-.64-8.75-1.29-8.85-1.6,2.51,5.61,7.41,10.52,17.75,11.51,5.75.58,12-1.33,17.2-2.6a40.58,40.58,0,0,1,6.74-1.22,15.72,15.72,0,0,1,3,.07,10.76,10.76,0,0,0-.64-3.24,23.54,23.54,0,0,0-4.41-7.35C818.92,962.71,811.54,957.89,804.05,957.15Z" transform="translate(-280.2 -305.98)"/><path class="cls-1" d="M612.15,786.67a58.31,58.31,0,0,0,8.25-7.06,14.32,14.32,0,0,0,4-8.22c-2-.93-7.76-1.15-14.13,1.24a29.52,29.52,0,0,0-9.16,5.54,34.07,34.07,0,0,0-6.65,8.11,27.58,27.58,0,0,1,8.3-12.53,26.46,26.46,0,0,1,10.71-5.48c6.55-1.55,10.51-.38,10.53-.15-1.08-2.82-3.62-5.55-8.14-6.65a18.64,18.64,0,0,0-8.26,0,26.49,26.49,0,0,0-19,16.65,32.48,32.48,0,0,0-2.07,12A41,41,0,0,0,588.41,802s4.22-2.86,9.32-6.3c2.54-1.7,5.3-3.47,7.83-4.94A72.41,72.41,0,0,0,612.15,786.67Z" transform="translate(-280.2 -305.98)"/><path class="cls-1" d="M583.69,703.06c-1.05,4.59-1.06,7.85-.32,10.69a14.74,14.74,0,0,0,4.35,7.25c1.84-.63,4.9-4.28,7.06-9.49a68.35,68.35,0,0,0,4.35-16.69c1.19,8.69-.39,16.25-2.94,21.16s-5.51,6.94-5.72,6.76a10.45,10.45,0,0,0,9.72-1.34c3.39-2.24,6.47-6.67,7.81-12.62,1.5-6.69-.66-13.47-2.88-18.6s-4.48-9-4.48-9a42.07,42.07,0,0,0-7.78,6.73C588.9,692.16,584.88,697.87,583.69,703.06Z" transform="translate(-280.2 -305.98)"/><path class="cls-1" d="M461,710.51c3.13,4.69,7.48,7.7,11.15,8.4a8.68,8.68,0,0,0,8.54-2.66c-.7-1.9-3.61-5.07-6.15-9.21s-5.07-9-7.56-12.9c6,5.16,9.14,10,11.62,13.27s4,5.74,3.83,6.06a25.21,25.21,0,0,0,1.62-8.86,13.42,13.42,0,0,0-2.5-8.46c-2.33-3.43-7.84-7.06-12.94-9.12a29,29,0,0,0-9.35-2.23L458.18,694C457.7,698.92,457.38,705.09,461,710.51Z" transform="translate(-280.2 -305.98)"/><path class="cls-1" d="M486.17,483.91a20.49,20.49,0,0,0,8.38,3.73,18.23,18.23,0,0,0,8.14-.59c.47-1.86-1.1-6.41-4.91-10.55a36.23,36.23,0,0,0-14.28-9.45,26,26,0,0,1,18.9,10.08c3.38,4.6,3.44,8.37,3.18,8.43a10,10,0,0,0,3.5-9.44c-.51-4.28-3.4-9.45-9-13.27-6.34-4.33-14.8-4.36-20.68-2.59a25,25,0,0,0-9.37,4.83s3.12,3.3,6.22,7.42S482.57,481.44,486.17,483.91Z" transform="translate(-280.2 -305.98)"/><path class="cls-1" d="M1127.52,756.05a12.34,12.34,0,0,0,5.22,8.49,47.56,47.56,0,0,0,10.86,5.6c2.34-.9,4.77-5.6,5.27-11.72a42.47,42.47,0,0,0-2.7-18.47c7,7.37,8.42,16.33,7.32,22.42s-4.35,9.26-4.78,9.07a16.2,16.2,0,0,0,13.9-4.67c3.88-3.95,6.13-10.47,4.83-17.89-1.45-8.36-8.94-14.82-15.86-18a36.92,36.92,0,0,0-13.13-3.62s-2.51,5.69-5.48,11.75S1126.76,751.57,1127.52,756.05Z" transform="translate(-280.2 -305.98)"/><path class="cls-1" d="M809,548.66c3.68,10.51,10.47,16,19.89,17.4,1.95-2.24,3.11-9,2.1-17s-4.13-17-8.75-23.16a35.46,35.46,0,0,1,10.95,13.9,38.12,38.12,0,0,1,3.32,13.53c.42,7.93-1.89,12.61-2.35,12.58a17.81,17.81,0,0,0,12.31-9.22c2.84-5.31,3.87-13,.58-22.26a32.33,32.33,0,0,0-9.84-13.53,36.94,36.94,0,0,0-14.48-7.45,27.78,27.78,0,0,0-12-.49,19.45,19.45,0,0,0-4.36,1.34s.62,1.64,1.2,4.23a40.94,40.94,0,0,1,.93,9.59C808.46,535.35,806.8,542.7,809,548.66Z" transform="translate(-280.2 -305.98)"/><path class="cls-1" d="M892.22,923.55c1.86,3.42,3.73,5.39,6,6.7a16.88,16.88,0,0,0,7.73,2.18c1.1-1.46,1.31-5.78-.19-10.64A45.26,45.26,0,0,0,898.58,908c6.49,4.64,9.94,10.94,10.95,15.87s-.11,8.16-.39,8.15a10.23,10.23,0,0,0,6.81-6.84c1.25-3.74.87-8.89-1.91-14-3.12-5.71-9.32-9-14.45-10.52a42.13,42.13,0,0,0-9.4-1.75,81.88,81.88,0,0,0-.47,9.5C889.77,913.73,890.13,919.69,892.22,923.55Z" transform="translate(-280.2 -305.98)"/><path class="cls-1" d="M1288,872.74c-7.22-1.55-12.58-1-16.89.86a20.07,20.07,0,0,0-9.79,9.31c1.47,2.67,7.24,6.12,14.6,8.85a169.77,169.77,0,0,0,23.08,6.48c-12.2,1.38-22.19-.36-29.15-3.29s-10.43-6.51-10.24-7a20.19,20.19,0,0,0,3.47,14.91c3.29,4.67,9,8.49,16.47,10.1,8.4,1.79,17.23-1.49,24.65-4.59s13.5-6.13,13.51-6.14a53.69,53.69,0,0,0-7.74-13.58C1304.63,881.64,1296.25,874.49,1288,872.74Z" transform="translate(-280.2 -305.98)"/><path class="cls-1" d="M1206.89,589c-5.49,4.29-7.83,9.1-8.15,13.54s1.43,8.65,4.37,12.31c2.68.13,7.12-2.33,12-5.3s10.32-6.35,14.79-8.79a78.54,78.54,0,0,1-7.53,9.06,38,38,0,0,1-7,5.55c-4.38,2.72-8.11,3.55-8.5,3.17,7.83,5.83,18.27,8.13,24.53,3.18,3.55-2.73,4.15-9,6.08-15a51.93,51.93,0,0,1,5-11.33,25.37,25.37,0,0,0-11.1-8.28C1224,583.92,1213.16,584,1206.89,589Z" transform="translate(-280.2 -305.98)"/><path class="cls-1" d="M728.62,796.36a24.54,24.54,0,0,0-9.44,7.37,19.81,19.81,0,0,0-3.82,12.69c2.33,1.61,8,2.36,14.76,1.7a31.67,31.67,0,0,0,10.35-2.8,25.34,25.34,0,0,0,8.46-6.53,22.29,22.29,0,0,1-10.64,11.75,27.94,27.94,0,0,1-11.52,3c-6.46.26-10.4-1.4-10.51-1.89a22.75,22.75,0,0,0,8.54,11.9,16.94,16.94,0,0,0,7.78,2.77,23.87,23.87,0,0,0,11.54-2A27,27,0,0,0,757,822.46a28,28,0,0,0,3.2-14.75,37.13,37.13,0,0,0-3.89-14.18c0-.11-6.31,1.78-13.08,2.92a30.45,30.45,0,0,1-9.18.26C731.57,796.34,730.21,795.67,728.62,796.36Z" transform="translate(-280.2 -305.98)"/><path class="cls-1" d="M432,505.17a14.06,14.06,0,0,0,10.07,3.6,31.91,31.91,0,0,0,12-3.09c.92-2.45-.53-7.6-4.16-12.64a45.15,45.15,0,0,0-14-12.6A27.4,27.4,0,0,1,456,493c3.27,5.36,3,9.74,2.61,10a18.14,18.14,0,0,0,7-12.94c.36-5.39-2-11.65-7.69-16.44-6.4-5.41-16.13-5.5-23.43-3.66A46.47,46.47,0,0,0,421.88,475s1.25,6.15,2.92,12.93S428.35,502.05,432,505.17Z" transform="translate(-280.2 -305.98)"/><path class="cls-1" d="M582.4,396c7,6.63,15.73,6.89,23.88,2.1.47-2.71-1.54-7.87-5.17-13.18A49.83,49.83,0,0,0,587,371.12,30.75,30.75,0,0,1,607.25,385c3.26,5.31,3.59,9.57,3.2,9.87a21.48,21.48,0,0,0,6.24-13.22c.35-5.11-1.48-10.85-6.88-15.91-6-5.7-16.49-7-24.39-5.44a34.24,34.24,0,0,0-13.12,5.25s1.94,6.09,3.38,12.79C577.28,385.06,578.39,392.25,582.4,396Z" transform="translate(-280.2 -305.98)"/><path class="cls-1" d="M917.27,358.46a15,15,0,0,0-4.25,9.77,42.16,42.16,0,0,0,1.5,12.43c2.21,1.36,7.77.41,13.32-3.14a39.46,39.46,0,0,0,13.72-14.83A28.3,28.3,0,0,1,936,376.35a26.31,26.31,0,0,1-8.83,7.51c-6,3.1-10.61,2.24-10.7,1.77a16.11,16.11,0,0,0,12.3,8.48c5.65.71,12.52-1.45,18.19-7.62,6.41-6.89,7.59-18.49,5.28-26.92a28.23,28.23,0,0,0-4.5-9.74,19.14,19.14,0,0,0-2.85-3.09,38.6,38.6,0,0,1-3.41,2.07,46.64,46.64,0,0,1-8.11,3.27C927.13,354.07,920.42,355,917.27,358.46Z" transform="translate(-280.2 -305.98)"/><path class="cls-1" d="M645.49,623c6,2.23,11,2.93,15.46,2.25A22.65,22.65,0,0,0,673,619.37c-.57-3-5.34-8.45-12.5-12.94a62.31,62.31,0,0,0-24.31-9A42.71,42.71,0,0,1,667.55,605c6.71,4.91,9,9.87,8.72,10.21a18.21,18.21,0,0,0,.37-15.77c-2.46-5.74-8-11.56-17.22-15-10.29-3.89-23-1.23-31.5,3.66a34.47,34.47,0,0,0-12.38,11.1,94.27,94.27,0,0,1,11.52,9.45C632.89,614,638.75,620.52,645.49,623Z" transform="translate(-280.2 -305.98)"/><path class="cls-1" d="M543,707a28.85,28.85,0,0,0,12.67,5.25,24.87,24.87,0,0,0,13.15-1.68c.48-3-2-9.72-7.54-16s-13.95-11.62-21.13-14.42a41.57,41.57,0,0,1,17.33,5.3,35.56,35.56,0,0,1,11,9.81c4.9,6.88,5.22,12.3,4.85,12.5A17.51,17.51,0,0,0,578.9,693c-.49-6.31-4.65-14.33-13.31-20.2a32,32,0,0,0-15.65-5.2,46.81,46.81,0,0,0-14.56,1.45,79.68,79.68,0,0,0-14.72,5.4,111.43,111.43,0,0,0,7.42,13.79c2.25,3.64,4.82,7.47,7.34,10.8S540.39,705.22,543,707Z" transform="translate(-280.2 -305.98)"/><path class="cls-1" d="M504.88,758.31c0-9.41-2.51-14.92-5.62-18.41S492,734.83,487.4,734c-2.15,2-3.15,8.63-3.63,16.28s-1.19,16.25-3.54,22.5c0-5.77-.73-10.51-1.05-15a80,80,0,0,1-.21-12.15c.41-7.18,2.6-11.82,3.16-11.73A19.21,19.21,0,0,0,469.38,742a28,28,0,0,0-5,15.68,15.24,15.24,0,0,0,2.23,7.8,31.76,31.76,0,0,1,3.6,8.17,24.45,24.45,0,0,1,.27,9.16c-.38,2.57-.85,4.25-.83,4.25a21.15,21.15,0,0,0,4.35,1.09,22.77,22.77,0,0,0,11.93-1.51,30,30,0,0,0,13.53-11.52A32.23,32.23,0,0,0,504.88,758.31Z" transform="translate(-280.2 -305.98)"/><path class="cls-1" d="M348.36,832.25c8.07,2.75,16.12,2.3,21.69-.58s8.2-7.78,8-12.5a47.72,47.72,0,0,0-6.67-2,97.57,97.57,0,0,1-9.43-3.09c-6.76-2.55-14.15-6.15-20.35-8.78a107.21,107.21,0,0,1,25.55,5.11c5.68,1.87,9.6,3,9.81,3.53a118.08,118.08,0,0,0-6.17-12.67,16,16,0,0,0-9.75-8.11c-5.71-1.88-14.58-.44-22.34,1.37a90.94,90.94,0,0,0-13.89,4.38,83.15,83.15,0,0,0,4.82,14C333,820.39,339,829.1,348.36,832.25Z" transform="translate(-280.2 -305.98)"/><path class="cls-1" d="M883.79,976c8.92-2.07,14.08-6.56,16.49-11a16.36,16.36,0,0,0,.77-13.67c-2.81-.8-8.61.71-15.24,2a94.5,94.5,0,0,1-20.23,1.83c5-1.89,9.14-3.45,12.78-4.7a98.4,98.4,0,0,1,9.8-2.92c5.8-1.39,10.13-1.42,10.39-.91-5.85-7.94-16.17-12.57-23.53-10.84-2.16.49-4.14,2-6.67,3.95s-5.45,4.28-8.36,6.46c-5.85,4.38-11,8.37-11,8.41a48,48,0,0,0,8.27,12,33,33,0,0,0,11.29,7.86A25.72,25.72,0,0,0,883.79,976Z" transform="translate(-280.2 -305.98)"/><path class="cls-1" d="M1247.59,754.37c-5.62-6.65-14.8-8-23-3.32-.62,2.61.82,7.53,3.56,12.77s7,10.72,11.61,14a26.2,26.2,0,0,1-11.54-6.3,27,27,0,0,1-5.94-8c-2.42-5.09-2.4-9-2-9.34a24.53,24.53,0,0,0-7.43,12.24c-1,4.67-.2,10,4.33,15.21,5,5.92,15.37,8.25,23.18,6.95a28.83,28.83,0,0,0,12.78-5A81.84,81.84,0,0,1,1251,771C1250.35,764.55,1250.82,758.09,1247.59,754.37Z" transform="translate(-280.2 -305.98)"/><path class="cls-1" d="M883.89,511.14a22.91,22.91,0,0,0,5.5,5.89,24.38,24.38,0,0,0,7.14,3.9c1.39-1.32,2.72-6.33.81-12.12s-6.46-11.38-11-14.57a25.26,25.26,0,0,1,10.52,7.7,21.34,21.34,0,0,1,4.43,9.85c.91,6.28-1.35,9.65-1.54,9.55,2.92-.25,6.24-2.07,7.93-6.62s1.18-11.76-3.47-18.28a23.18,23.18,0,0,0-9.76-7.8,29,29,0,0,0-21.25-.53s2.19,4.18,4.38,9.17S881.74,508,883.89,511.14Z" transform="translate(-280.2 -305.98)"/><path class="cls-1" d="M611.57,558.37c10-5.37,12.07-14.45,8.91-23.36-5-2-20.54,3.58-30.06,9.3,11.87-16,27.2-15,27.67-14.07-5.47-8-15.19-13.75-25.44-8.26-11.45,6.13-14.28,30.91-14.27,30.91S600.12,564.49,611.57,558.37Z" transform="translate(-280.2 -305.98)"/><path class="cls-1" d="M832.46,343.49c3.34,4.37,6.31,6.45,9.85,7.58a47.56,47.56,0,0,0,12.39,1.79c.87-1.07,1.44-3.21,1.28-6.07a28.88,28.88,0,0,0-2.62-9.9,56.85,56.85,0,0,0-14.29-19.06c11.43,4.87,18.33,13.95,20.74,21.52a22.78,22.78,0,0,1,1.21,9.39c-.24,2.27-.85,3.47-1.08,3.49,4.59-1.29,9-5.19,10.45-11.76s-.27-14.92-6-22.31c-6.42-8.34-17.41-11.64-26.09-12.09a44.4,44.4,0,0,0-15.25,1.6l2.58,14.45C827.11,329.9,828.71,338.58,832.46,343.49Z" transform="translate(-280.2 -305.98)"/><path class="cls-1" d="M702.45,434c-6.5-4.15-11.92-4.91-16.29-4s-7.81,3.76-10.71,7.47c1,5.69,17.24,15.42,25.33,23.73-4.7-2-8.75-3.49-12.29-5.32a50.55,50.55,0,0,1-8.92-5.65c-4.84-3.82-7.12-7.7-6.81-8.16a22.68,22.68,0,0,0-.76,14.72,20.6,20.6,0,0,0,8.63,11.85,13.65,13.65,0,0,0,7.84,1.94,41.2,41.2,0,0,0,4.14-.32,20,20,0,0,1,4.19-.29,14.46,14.46,0,0,1,7.38,2.68,16.7,16.7,0,0,1,2.59,2.31,16.32,16.32,0,0,0,3.64-3,18.48,18.48,0,0,0,4.67-10.89,26.28,26.28,0,0,0-.62-8.13,35.7,35.7,0,0,0-2.71-7.81A27.56,27.56,0,0,0,702.45,434Z" transform="translate(-280.2 -305.98)"/><path class="cls-1" d="M963.25,730.82c-3.84,1.13-6.18,3.11-7.39,5.06a6.23,6.23,0,0,0-.59,5.67c1.29.1,4-.89,7.09-1.73a38.39,38.39,0,0,1,9.68-1.55c-4.66,1.62-8.06,3.16-10.89,4s-4.67,1.22-4.79,1a10.92,10.92,0,0,0,11.2,2.86c2.44-.7,4.4-2.84,6.89-4.32a16.08,16.08,0,0,1,5.21-2,10.6,10.6,0,0,0-3.42-5.76C973.26,731.2,967.64,729.46,963.25,730.82Z" transform="translate(-280.2 -305.98)"/><path class="cls-1" d="M855.21,792.36a28.58,28.58,0,0,0,8.57-3.44,7.5,7.5,0,0,0,3.6-5.08c-1.45-.58-5.26-.81-9.76-.43s-9.79,1.73-13.37,4.34a20.15,20.15,0,0,1,8.49-5.19,28.94,28.94,0,0,1,7.57-1.36c4.27-.19,6.81.39,6.85.57a8.35,8.35,0,0,0-4.78-4.55c-2.54-1-6.18-1.6-11.23-.27a19.62,19.62,0,0,0-8,4.47,18.5,18.5,0,0,0-4.9,7.23,14.9,14.9,0,0,0-.67,8.24,25.23,25.23,0,0,1,6.43-2.81C847.6,793.11,851.31,793.41,855.21,792.36Z" transform="translate(-280.2 -305.98)"/><path class="cls-1" d="M377.59,684.14c4,4.79,7.43,6,11.08,5.19.26-1.28-.64-4.32-2.56-7.53a43.56,43.56,0,0,0-7.14-9,24.53,24.53,0,0,1,10,10c1.68,3.22,1.74,5.58,1.58,5.64a7.16,7.16,0,0,0,2.66-5.73,13.86,13.86,0,0,0-3.6-8.88c-5.87-7-17.79-6.79-17.71-6.77S373.14,678.71,377.59,684.14Z" transform="translate(-280.2 -305.98)"/><path class="cls-1" d="M481.4,908.38c1.94-3.48,2.32-6.31,2-8.45a6.83,6.83,0,0,0-2.95-4.75c-2.27,1.23-6.18,10.06-10.57,14.32,2.29-4.58,3.72-8.35,5.42-11s3.09-4.18,3.28-4.09c-3.72-.9-8.31,1.43-10.81,6.07-1.45,2.53-1.3,5.44-2.13,8.26a17.14,17.14,0,0,1-2.59,5.12,10.35,10.35,0,0,0,6.56,1.77A15,15,0,0,0,481.4,908.38Z" transform="translate(-280.2 -305.98)"/><path class="cls-1" d="M406.07,848.14a23.74,23.74,0,0,0-6-3.26,10,10,0,0,0-5.46-.36c-.23,1.34.86,4.72,3.67,7.83A24.82,24.82,0,0,0,409,859.23a19,19,0,0,1-13.88-7.68c-2.4-3.45-2.47-6.12-2.33-6.15a6.61,6.61,0,0,0-2.13,6.33c.4,3,2.47,6.78,6.68,9.64,4.73,3.27,10.86,3.35,15,2.24a20.7,20.7,0,0,0,6.7-3s-2.33-2.11-4.94-4.78S408.71,850,406.07,848.14Z" transform="translate(-280.2 -305.98)"/><path class="cls-1" d="M615.43,861c-3.14,2.68-4.56,5.72-4.79,8.17a5.75,5.75,0,0,0,2.17,5.41c1.15-.66,3-2.88,5.46-5a36.4,36.4,0,0,1,8.18-5.38c-3.63,3.41-6.11,6.13-8.18,8.1s-3.41,3.25-3.62,3.16a14.08,14.08,0,0,0,5.67.2,10.28,10.28,0,0,0,5.2-2.44c1.83-1.56,2.93-4.39,4.65-6.83a21.48,21.48,0,0,1,3.82-4.23,11.5,11.5,0,0,0-5.54-3.56C624.69,857.31,619,857.84,615.43,861Z" transform="translate(-280.2 -305.98)"/><path class="cls-1" d="M686.3,674c5.1,3.07,7,2.34,10.88,2,.6-1.07-.59-4.36-3.58-7a29,29,0,0,0-10.48-5.93,19.9,19.9,0,0,1,13.64,6.3c2.73,3.1,2.58,6.06,2.37,6,1.64-.85,2.86-3.34,2.08-6.52s-3.23-6.5-7.2-8.76c-4.47-2.55-10-2.4-13.93-1.35a19.13,19.13,0,0,0-6.45,2.9s2.11,2.15,4.52,4.83S683.42,672.32,686.3,674Z" transform="translate(-280.2 -305.98)"/><path class="cls-1" d="M639.66,419.51c-.13,4.94,2.5,8.11,6.1,8.66,1.5-1.64,2.87-9,2.39-14.19a17,17,0,0,1,1.21,10.26c-.49,2.49-1.36,4-1.56,4,3.69-.6,7.43-2.89,7.57-8.45.07-3.13-2-6.65-4.26-8.95a17.83,17.83,0,0,0-4.53-3.42l-3.28,4.32C641.59,414.06,639.71,416.7,639.66,419.51Z" transform="translate(-280.2 -305.98)"/><path class="cls-1" d="M625.68,432.55c4,1.18,6.78.07,9.48-2.52-.16-1.1-1.85-3-4.44-4.43A20.63,20.63,0,0,0,622,423a13.9,13.9,0,0,1,11.2,1.75c2.47,1.62,3.28,3.46,3.16,3.58a6.83,6.83,0,0,0,.13-6,9.93,9.93,0,0,0-6.52-5.17c-3.81-1.13-8.25.38-11.06,2.45a13.72,13.72,0,0,0-4.08,4.46,52.4,52.4,0,0,1,4.23,3.52C621.26,429.59,623.4,431.88,625.68,432.55Z" transform="translate(-280.2 -305.98)"/><path class="cls-1" d="M974.19,396.67a8.37,8.37,0,0,0,3.48,2.86,11,11,0,0,0,4.89,1c.6-.9.75-3.42-.29-6.18a16.17,16.17,0,0,0-5.38-7.21,12.12,12.12,0,0,1,7.8,8.26c.71,2.92,0,4.75-.12,4.76a6.6,6.6,0,0,0,4.14-4.24,9.86,9.86,0,0,0-1.87-8.67c-2.58-3.61-7.33-4.86-10.68-4.62a15.67,15.67,0,0,0-5.72,1.43s.82,2.52,1.55,5.33S973.12,395.14,974.19,396.67Z" transform="translate(-280.2 -305.98)"/><path class="cls-1" d="M1159.57,675.15a11.13,11.13,0,0,0,5.72-6.12,5.77,5.77,0,0,0-.93-5.51c-1.21.2-3.35,1.61-6,2.83a73.35,73.35,0,0,1-8.16,3.26,61,61,0,0,1,8.65-5.76c2.19-1.18,3.78-1.86,4-1.71a14,14,0,0,0-5.22-2,7.87,7.87,0,0,0-5.23.78c-2,1.06-3.81,3.75-5.63,6.18l-3.32,4.55a18,18,0,0,0,5,3.25C1151.44,676.34,1156,677.05,1159.57,675.15Z" transform="translate(-280.2 -305.98)"/><path class="cls-1" d="M1133.19,917.73a13.09,13.09,0,0,0-9,2.55c-2.47,1.93-2.69,4.37-1.83,6.1a19.16,19.16,0,0,1,2.92-.56,26.36,26.36,0,0,1,4.31.08c3.14.27,6.68.88,9.57,1.3a59.3,59.3,0,0,1-11.38.62,20.75,20.75,0,0,0-3,.07c-.73.1-1.14.26-1.21.17a28.47,28.47,0,0,1,3.8,3.56c1,1.17,2.49,1.89,5,2,2.78.15,6.25-1.29,9.16-2.63l5.3-2.57a19.47,19.47,0,0,0-3.48-5.19C1141,920.65,1137.31,918,1133.19,917.73Z" transform="translate(-280.2 -305.98)"/><path class="cls-1" d="M1102.8,969.84c-2.94-2.75-5.8-3.7-8-3.7a5.92,5.92,0,0,0-5,2.51c.59,1.15,2.76,2.89,5,5.12a33,33,0,0,1,6,7.46c-3.56-3.2-6.56-5.22-8.68-7.18s-3.37-3.32-3.27-3.52a11.26,11.26,0,0,0,3.19,11c1.72,1.66,4.35,2,6.72,3.39a12.85,12.85,0,0,1,4,3.72,9.42,9.42,0,0,0,3.7-5.55C1107.66,979,1106.22,972.93,1102.8,969.84Z" transform="translate(-280.2 -305.98)"/><path class="cls-1" d="M997.33,797.82c.44,4.2,2.95,7.44,6.58,8,.78-.85,1.45-3.23,1.71-6.11a19.1,19.1,0,0,0-1.19-8.91,14,14,0,0,1,3,10.76c-.37,2.74-1.28,4.3-1.47,4.3a8.31,8.31,0,0,0,5.09-2.68c1.35-1.57,2.29-3.91,1.89-7.37-.42-3.91-3.77-7.86-7-9.36a12.68,12.68,0,0,0-5.79-1.41,39.17,39.17,0,0,1-1,5.34C998.39,793.15,997,795.49,997.33,797.82Z" transform="translate(-280.2 -305.98)"/><path class="cls-1" d="M869,590.83c1.07-3.18-.19-6-2.88-8.5-1,.1-2.62,1.47-3.93,3.56a17.28,17.28,0,0,0-2.51,7.17,11.26,11.26,0,0,1,1.62-9.41c1.44-2,3-2.61,3.14-2.5a7.2,7.2,0,0,0-5.61-.55,7.72,7.72,0,0,0-4.74,5.17c-1.08,3.2.25,7.18,2.12,9.68a13.17,13.17,0,0,0,4,3.69s1.76-1.72,3.8-3.32S868.41,592.66,869,590.83Z" transform="translate(-280.2 -305.98)"/><path class="cls-1" d="M717.59,777.37c-3,4.67-3.3,9.52-2.38,12.45s2.76,4.36,4.57,4.62c.6-1.42.91-5.16,2.76-8.87a29.27,29.27,0,0,1,7.88-9.59,44.51,44.51,0,0,0-6.95,12.56c-1.06,3.28-1.4,5.67-1.66,5.7a15.39,15.39,0,0,0,5-3.36,22.53,22.53,0,0,0,4-4.87c1.43-2.35,2.86-6.2,4.64-9.56s3.4-6.05,3.38-6.06a20,20,0,0,0-7.36-.81,19.58,19.58,0,0,0-7.25,1.93A16.53,16.53,0,0,0,717.59,777.37Z" transform="translate(-280.2 -305.98)"/><path class="cls-1" d="M1102.25,627c4,2.66,7.36,2,10-.5.17-2.13-5.54-7.46-10-9.74,8.82,1.35,11.85,8,11.47,8.3,2.12-3.2,1.86-8.28-2.81-11.4-2.62-1.75-6.52-1.79-9.66-1.14a14.31,14.31,0,0,0-5.32,2.07s.9,2.34,1.81,5.07S1100,625.53,1102.25,627Z" transform="translate(-280.2 -305.98)"/><path class="cls-1" d="M1179.29,841.6c2.23,4.78,5.59,7.45,9.28,7.08.47-1.19.29-4.13-.6-7.49a23.51,23.51,0,0,0-4.88-9.58,17.77,17.77,0,0,1,7.3,11.13c.69,3.26.33,5.35.16,5.4,3.25-1.69,6.21-6.2,2.85-13.59a15.59,15.59,0,0,0-11-8,10.22,10.22,0,0,0-6.75,1,16.13,16.13,0,0,1,2,5.4C1178.19,835.77,1178,838.9,1179.29,841.6Z" transform="translate(-280.2 -305.98)"/><path class="cls-1" d="M1076.3,855.68c-4.91,1.23-8.58,4.7-9.66,7.81s-.2,5.36,1.23,6.46c1.18-.89,3.43-3.66,7-5a28.94,28.94,0,0,1,11.17-1.6c-5.64,1.37-9.61,2.77-12.14,4.32s-3.9,3.22-4.14,3.1a54.66,54.66,0,0,0,5.6.51,10.7,10.7,0,0,0,5-.22c2.33-.67,5.72-2.63,8.9-4.09s5.93-2.53,5.93-2.54a17.63,17.63,0,0,0-4.63-5.32C1087.33,856.58,1082,854.18,1076.3,855.68Z" transform="translate(-280.2 -305.98)"/><path class="cls-1" d="M1274.57,838.4c-5.3-1-9.5-.17-12.26,1.3s-4.06,3.61-4,5.48c1.68.24,5.63,0,10.16.72a40.06,40.06,0,0,1,13.2,4.19,83.29,83.29,0,0,0-16.16-2.47c-4-.32-6.54-.23-6.62-.45,2.17,3.34,5.93,5.68,12.76,6.91,3.81.73,7.86.35,11.33,1.06a13.65,13.65,0,0,1,6.15,2.9,9.36,9.36,0,0,0,.49-2.27,12.75,12.75,0,0,0-1.09-6.28A19.82,19.82,0,0,0,1274.57,838.4Z" transform="translate(-280.2 -305.98)"/><path class="cls-1" d="M1283.22,819.85c-6.16,4.28-7.49,8.74-6.12,12.17,2.74,0,11.53-5.45,17.39-9.14a43.77,43.77,0,0,1-10.88,8.84c-3.06,1.69-5.25,2.2-5.36,2,2.72,2.69,8,3.33,13.77-.67,3.21-2.22,5.49-6,7.28-9.19s3-5.93,3-5.94a26.92,26.92,0,0,0-6.7-1.1C1291.7,816.68,1286.75,817.41,1283.22,819.85Z" transform="translate(-280.2 -305.98)"/><path class="cls-1" d="M472.21,551.34c6.09,1.52,10.57.55,12.62-2.61-1.46-2.27-11.15-7.09-18.6-7a22.51,22.51,0,0,1,14.51,1.72c3.29,1.56,4.93,3.19,4.86,3.37.59-3.7-1.58-8.91-9.84-11a18.42,18.42,0,0,0-13.91,2.85,12.73,12.73,0,0,0-4.78,5.5,22.72,22.72,0,0,1,5.76,2.42C465.72,548.2,468.72,550.51,472.21,551.34Z" transform="translate(-280.2 -305.98)"/><path class="cls-1" d="M537.19,539.55c-5.88-.63-11.37,1.52-14,4.51s-2.53,5.76-1.52,7.27c.81-.37,2-1.28,3.74-2.06a16.89,16.89,0,0,1,6.22-1.46c4.71-.25,10,1.25,14.07,2.75-7.18-1.07-12.8-1.3-16.52-.38s-5.73,2.69-6,2.49a41.57,41.57,0,0,0,5.76,1.6,29.07,29.07,0,0,0,6.73,1.17c3.6.3,8.62,0,12.89,0s7.68,0,7.69,0a26.2,26.2,0,0,0-4.14-7.14C549.21,544.56,544,540.22,537.19,539.55Z" transform="translate(-280.2 -305.98)"/><path class="cls-1" d="M529.13,524.09a8.94,8.94,0,0,0,.8,9.65c1.08,0,3.18-1.23,5-3.42a18.84,18.84,0,0,0,4-7.88,13.22,13.22,0,0,1-3.62,10.47c-2,2-3.82,2.46-3.93,2.32a6.87,6.87,0,0,0,5.66,1.35,9.3,9.3,0,0,0,6.15-5.28c1.82-3.56,1.07-8.22-.48-11.23a15,15,0,0,0-3.55-4.7s-2,1.73-4.21,3.44S530.12,522.16,529.13,524.09Z" transform="translate(-280.2 -305.98)"/><path class="cls-1" d="M509.9,601.58c.73-4,.37-6.58-.35-8.4a9.54,9.54,0,0,0-3.43-4.14c-1.16.53-2.59,3.48-3.52,7.17s-1.91,7.91-3.36,11c.47-2.81.59-5.32.89-7.63a36.23,36.23,0,0,1,1.18-6.14c1-3.55,2.79-5.37,2.95-5.24a6.42,6.42,0,0,0-6,2.23,16,16,0,0,0-3.8,8.12c-.69,3.58.38,6.49.35,9.59a16.33,16.33,0,0,1-1.27,6,10.76,10.76,0,0,0,7.22-.73,15.43,15.43,0,0,0,5.94-4.84A17,17,0,0,0,509.9,601.58Z" transform="translate(-280.2 -305.98)"/><path class="cls-1" d="M447.08,576.91c1.1-5.31-.52-8.77-3.71-10.61-2.15,1.13-5.33,9.36-5.74,15.3a20.15,20.15,0,0,1,1.05-11.92c1.17-2.78,2.59-4.15,2.77-4.08-3.66-.68-8.39,1.5-9.76,8.1-.75,3.67.66,7.86,2.41,10.85a22.07,22.07,0,0,0,3.73,4.84s1.95-1.86,4.1-4.21S446.47,580,447.08,576.91Z" transform="translate(-280.2 -305.98)"/><path class="cls-1" d="M344.24,656.93c5.68,1,10.25.06,13.23-1.74a9.91,9.91,0,0,0,4.9-7.42c-1.64-1.18-6-1.87-10.88-3s-10.42-2.66-14.87-4a88,88,0,0,1,18.29,1.44c4.42.83,7.27,1.92,7.29,2.27A16.7,16.7,0,0,0,348.5,632c-4.33-.73-9.76.84-14.73,2.21s-9,2.79-9,2.81a36,36,0,0,0,4.31,8.93C332.16,650.62,337.66,655.8,344.24,656.93Z" transform="translate(-280.2 -305.98)"/><path class="cls-1" d="M300.55,697c7.87-1.35,12.54-4.27,13.17-8.06-2.82-1.25-15.79-1.46-24.08,2a32,32,0,0,1,16.95-4.91c4.37-.05,7,.62,7,.81-1.28-3.55-6-7.22-15.89-5.56a24.13,24.13,0,0,0-14,8.8,17.19,17.19,0,0,0-3.52,7.5,37,37,0,0,1,7.26-.49C291.44,697.21,296.08,697.87,300.55,697Z" transform="translate(-280.2 -305.98)"/><path class="cls-1" d="M486.85,950.66c-4.23-2.21-8.06-2.11-10.48-1.15a5.64,5.64,0,0,0-3.82,4.6c1.2.67,4.23,1.11,7.35,2.52a22.57,22.57,0,0,1,8.23,6.09,45.84,45.84,0,0,0-10.71-4.89c-2.73-.89-4.67-1.42-4.7-1.65a15.66,15.66,0,0,0,2.75,5.08,12.34,12.34,0,0,0,4.1,3.54c1.82,1,4.66,1,7.44,2.19a19.12,19.12,0,0,1,4.91,3.12,11.63,11.63,0,0,0,2.18-6.57,14.45,14.45,0,0,0-1.63-7.1A13.8,13.8,0,0,0,486.85,950.66Z" transform="translate(-280.2 -305.98)"/><path class="cls-1" d="M481.22,979.07c-.76-5-2.64-7.89-4.47-9.66a6.52,6.52,0,0,0-5.65-2c-.25,1.45.58,4.83,1.26,8.8s1.05,8.62-.24,11.93a25.43,25.43,0,0,0-.77-7.75L470,974.27c-.78-3.56-.95-5.95-.74-6a9.3,9.3,0,0,0-3.36,5.26,19.72,19.72,0,0,0-.19,7.85,13.9,13.9,0,0,0,1.18,3.87,7.81,7.81,0,0,1,.94,3.78c-.16,3-2.34,5.8-2.21,5.78a11,11,0,0,0,2,.54,10.24,10.24,0,0,0,5.71-.6,12.74,12.74,0,0,0,6.49-6.39A16.31,16.31,0,0,0,481.22,979.07Z" transform="translate(-280.2 -305.98)"/><path class="cls-1" d="M367.59,786.34c.46,4.62,2,8,3.77,10s3.8,2.78,5.61,2.56c.28-1.51-.39-5.06-.72-9.24a114.35,114.35,0,0,1-.36-12.85c1.34,6.33,2.13,11.37,2.6,15.14s.62,6.15.4,6.24a9.91,9.91,0,0,0,3.63-5.1,19.37,19.37,0,0,0,.71-8.44c-.43-3.85-2.24-8.05-3.81-11.7s-3-6.47-3-6.46a28.12,28.12,0,0,0-4.83,5.57C369.23,775.64,367,781,367.59,786.34Z" transform="translate(-280.2 -305.98)"/><path class="cls-1" d="M783.89,979.62a20,20,0,0,0-6.47-4.06,8.49,8.49,0,0,0-5.56-.09c-.09,1.36,1.23,4.54,3.81,7.65a40,40,0,0,0,9.33,8.17,24.88,24.88,0,0,1-12.43-8.95c-2.28-3.23-2.62-5.76-2.47-5.82a7.07,7.07,0,0,0-1.87,6.26c.38,2.77,2.12,6.12,5.52,9,3.8,3.26,9,4.34,13,4.48a32.41,32.41,0,0,0,7-.48C793.75,995.75,789.35,984.4,783.89,979.62Z" transform="translate(-280.2 -305.98)"/><path class="cls-1" d="M595.92,944.43a15.8,15.8,0,0,0,8.19,4.61c3.4.84,5.56-.6,6-3-.32.21-1.58-.44-2.61-1.46s-2.13-2.21-3.32-3.55c-2.37-2.68-5.09-5.79-7.45-8.16a44.63,44.63,0,0,1,10.3,8.31l1.42,1.49a7.24,7.24,0,0,0,1,1c.73.51,1,.19,1,.32a10.88,10.88,0,0,0-.15-2.27,8.23,8.23,0,0,1,.09-2.55c-.14-1.75-1.25-3.89-3.56-6.18-5.15-5.15-16.71-6.2-16.71-6.06C590.32,926.93,590,938.46,595.92,944.43Z" transform="translate(-280.2 -305.98)"/><path class="cls-1" d="M1003.65,429.17a13.09,13.09,0,0,0-7.11,6.51,5.36,5.36,0,0,0,.73,6c1.25-.53,3.58-2.28,6.59-3.47s6.53-2.24,9.4-3.16a86.32,86.32,0,0,1-10.19,5.74c-2.4,1.21-3.93,2.21-4.14,2.09a27.62,27.62,0,0,0,5.32,1.63,8.35,8.35,0,0,0,5.52-.63c5-2.1,11.22-11.47,11.07-11.53a33.46,33.46,0,0,0-5.53-2.73C1012.1,428.39,1007.71,427.45,1003.65,429.17Z" transform="translate(-280.2 -305.98)"/><path class="cls-1" d="M1010.68,451c-4.1-6.41-8.46-7.56-11.82-6.17-.08,2.72,5.22,11.36,8.2,17.36a51.78,51.78,0,0,1-8-10.9c-1.58-3-2-5.19-1.88-5.3-2.69,2.74-3.29,8,.23,13.54,1.94,3.08,5.26,5.24,8.11,7.22l5.2,3.64a19.91,19.91,0,0,0,2.14-6.51C1013.49,459.93,1013,454.66,1010.68,451Z" transform="translate(-280.2 -305.98)"/><path class="cls-1" d="M881.64,314.11c-3.91,3.71-5.6,7.57-6,10.53s.49,5.12,2,6.27c1.25-1,3.37-4.27,6.49-7.45a35.1,35.1,0,0,1,10.83-7.87c-5.28,4.05-8.55,8.24-11.15,11.23s-4.08,5-4.3,4.93c3.89.54,8.24-1.47,12.85-5.92,2.63-2.45,4.55-5.77,7.24-8.17a18.9,18.9,0,0,1,5.82-3.56,12.68,12.68,0,0,0-6.92-4.34C893.49,308.28,886.08,309.79,881.64,314.11Z" transform="translate(-280.2 -305.98)"/><path class="cls-1" d="M889.72,332.62c-8.39,1.87-14.37,6.91-16.72,11.43s-1.82,8.33,0,10.63c2.26-1.05,6.81-5.11,13.18-7.18,6.29-2.25,13.92-2.63,20.06-2.36-10.11,1.95-17.43,4.25-22.41,6.81s-7.93,5-8.26,4.73a26.19,26.19,0,0,0,9.34,1.67,34.94,34.94,0,0,0,10.36-1c4.69-1.15,11-4.06,16.83-6.27l10.49-4a38.23,38.23,0,0,0-8.45-8.46,34.82,34.82,0,0,0-10.63-5.34A27.14,27.14,0,0,0,889.72,332.62Z" transform="translate(-280.2 -305.98)"/><path class="cls-1" d="M1268.63,646.79c-4.49,4.87-5.28,9.86-3,12.78,2.5-.77,10.09-7.07,14.16-12.6a28.18,28.18,0,0,1-8,11c-2.55,2.14-4.44,3.08-4.6,3,3.33,1.79,8.09,2,13-3.37,2.76-3,4.18-7.85,4.43-11.76a20.77,20.77,0,0,0-.59-6.76l-5.88,2.24C1275,642.52,1271.17,644,1268.63,646.79Z" transform="translate(-280.2 -305.98)"/><path class="cls-1" d="M803.31,574.73c9.16,2.39,14.47,1,16.29-2.15-.82-1.21-4.83-2.92-9.43-4.54s-10.11-3.24-14.56-4.36c15.14.65,25,6.35,24.84,7,.24-4-4-9-13.23-11.42-5.19-1.36-11-.84-15.55-.09s-7.85,1.68-7.87,1.65a36.46,36.46,0,0,0,5.71,6C793.1,570,798.08,573.36,803.31,574.73Z" transform="translate(-280.2 -305.98)"/><path class="cls-1" d="M495.15,567.14c1.45-2.59.65-5.47-1.52-8.46-1-.13-2.74.78-4.33,2.45a14.94,14.94,0,0,0-3.56,6.11,9.91,9.91,0,0,1,3.06-8.4c1.71-1.54,3.28-1.79,3.4-1.65a7.34,7.34,0,0,0-5.29-1.77,7,7,0,0,0-5.45,3.88c-1.6,2.8-1,6.85.5,9.56a11.14,11.14,0,0,0,3.48,4.08,28.73,28.73,0,0,1,4.21-2.4C491.9,569.43,494.31,568.63,495.15,567.14Z" transform="translate(-280.2 -305.98)"/><path class="cls-1" d="M935.92,770.86c4.27-5,4.89-11.35,1.41-16.08-1.77,0-5,1.76-8.37,4.42a31,31,0,0,0-8.56,10.2,20.23,20.23,0,0,1,3.48-9A22.17,22.17,0,0,1,929,755.2c3.28-2.39,5.9-3,6.12-2.78a13.81,13.81,0,0,0-8.45-3c-3.13,0-6.57,1.33-9.8,5.18-3.66,4.27-4.58,11.87-3.07,17.17a18.94,18.94,0,0,0,4.36,8.2,48.45,48.45,0,0,1,7.33-3.79C929.4,774.46,933.56,773.7,935.92,770.86Z" transform="translate(-280.2 -305.98)"/><path class="cls-1" d="M931.81,709a14.09,14.09,0,0,0,3.35,9.32,44.41,44.41,0,0,0,9.2,8.27c2.53-.43,6.12-4.72,7.92-11a35.47,35.47,0,0,0-.06-20,26.1,26.1,0,0,1,5.3,13.65,25.32,25.32,0,0,1-1.61,11.51c-2.47,6.28-6.51,8.61-6.87,8.32a15.84,15.84,0,0,0,14.72-1.69c4.71-3.2,8.56-9.55,8.59-18.26a25,25,0,0,0-4.53-13.87,31.11,31.11,0,0,0-10.33-9.54,24.6,24.6,0,0,0-14.07-3.44,46.45,46.45,0,0,1-4.35,12C936.09,700.11,931.84,704.89,931.81,709Z" transform="translate(-280.2 -305.98)"/><path class="cls-1" d="M796.87,762c1.68-2.48,2.58-4,2.28-5,0-1.31.67-2.72,1.07-4.12a2.85,2.85,0,0,0-2.82-1.21,9.09,9.09,0,0,0-4.62,2.44,27.56,27.56,0,0,0-7,10.49c.9-6.43,4.23-11.38,7.9-13.71a6.25,6.25,0,0,1,5-1.08,2.6,2.6,0,0,1,1.65,1.18,5.23,5.23,0,0,0-5.69-4.88c-4.17.25-8.05,2.88-10.77,6.86-3.07,4.52-3.45,10.38-2.59,14.75a13.4,13.4,0,0,0,3.06,6.87,24.59,24.59,0,0,1,4.51-4.74C791.6,767.42,795,764.77,796.87,762Z" transform="translate(-280.2 -305.98)"/><path class="cls-1" d="M510.06,807.33c-1.09,2.74-1.15,4.35-.82,5.89a13.87,13.87,0,0,0,2.1,4.58c1.13,0,3.31-1.61,5-4.38s3-6.15,4.29-8.73c-.6,4.81-1.73,8.81-3.72,11.46s-4,3.31-4.12,3.15a6,6,0,0,0,6.09.57,11.72,11.72,0,0,0,5.77-6.5c1.32-3.35.52-6.51.21-9.5a35.59,35.59,0,0,1-.23-5.72,12.88,12.88,0,0,0-6.21,1.15C514.89,800.75,511.26,804.23,510.06,807.33Z" transform="translate(-280.2 -305.98)"/><path class="cls-1" d="M1041.47,724.09c.88,3,3.43,4.1,7,4.8.84-.52,1.44-2.53,1.32-4.93a14.68,14.68,0,0,0-2.14-7.09,10.18,10.18,0,0,1,4.13,8.37c-.06,2.43-1.08,3.84-1.27,3.8,3.7-.06,7.69-3.89,5.94-9.74-1-3.23-4.51-5.89-7.87-6.65a7.08,7.08,0,0,0-5.62.68,8.77,8.77,0,0,1-.24,4.64C1042.07,720.22,1040.94,722.41,1041.47,724.09Z" transform="translate(-280.2 -305.98)"/><path class="cls-1" d="M357.39,750.29c2.95-6.14,2.94-11.25.15-13.76-2.43,1.31-9.11,10.34-10.85,18a26.47,26.47,0,0,1,4.91-14.54c2.17-3.09,4-4.57,4.18-4.47-3.58-1.05-8.81.18-12.62,8.06-2.12,4.44-1.93,10.45-.53,14.52a20.4,20.4,0,0,0,3.42,6.43s1.92-2.45,4.34-5.16S355.76,753.78,357.39,750.29Z" transform="translate(-280.2 -305.98)"/><path class="cls-1" d="M373.58,851.6c3.38-4.62,4.12-8.21,2.72-11.75-1.27-.05-4.13,1.32-6.88,3.9a30,30,0,0,0-6.77,9.4,20.72,20.72,0,0,1,7.24-12.46c2.88-2.3,5.2-2.71,5.27-2.56a6.77,6.77,0,0,0-6.05-1.69c-2.59.43-5.64,2.2-8.19,5.71-2.88,3.92-3.43,9.41-2.81,13.39a20.33,20.33,0,0,0,2.12,6.61l5.22-3.75C368.33,856.36,371.64,854.25,373.58,851.6Z" transform="translate(-280.2 -305.98)"/><path class="cls-1" d="M357.9,921.38c5.61-1.19,9.62-3.63,11.84-6s2.87-4.74,2.42-6.59c-1.77.19-5.86,2-10.87,3.19a86.71,86.71,0,0,1-15.67,2.15c7.69-1.92,13.79-3.53,18.2-5s7.18-2.36,7.31-2.16a10.21,10.21,0,0,0-6.35-2.28,35.92,35.92,0,0,0-10.13,1.06,82.14,82.14,0,0,0-14.23,5.15c-4.33,1.92-7.55,3.65-7.54,3.66a41.24,41.24,0,0,0,7.43,4.32C344.83,921,351.43,922.78,357.9,921.38Z" transform="translate(-280.2 -305.98)"/><path class="cls-1" d="M453.72,831.79c.39,8.62,3.64,12.32,7.24,13,1.41-2.61,1-14.14,1.53-21.78A77.1,77.1,0,0,1,464,838.36c-.09,3.87-.75,6.26-.95,6.27,3.68-1.07,6.77-5.86,6.44-13.36-.16-4.15-1.88-8.27-3.27-11.93s-2.59-6.54-2.62-6.54a26.56,26.56,0,0,0-5.14,5.26C455.84,821.48,453.52,826.83,453.72,831.79Z" transform="translate(-280.2 -305.98)"/><path class="cls-1" d="M497.58,449.7c0,4.35,1.37,7.44,3,9.25a5.9,5.9,0,0,0,5.36,2.16c.37-1.31,0-4.35,0-7.86a40.78,40.78,0,0,1,1.22-10.54c.17,5.35.68,9.33.83,12.48s.12,5.17-.08,5.25a12.25,12.25,0,0,0,5.43-10.74c0-2.71-1.39-5.64-2-8.79a35,35,0,0,1-.78-6,13.4,13.4,0,0,0-6.28,2.5C500.8,439.66,497.51,444.68,497.58,449.7Z" transform="translate(-280.2 -305.98)"/><path class="cls-1" d="M574.65,671.14c1.94,7.11,4.66,10.65,8.37,11.4.69-1.29,1-5,.49-9.31a48.54,48.54,0,0,0-3.48-13,30.61,30.61,0,0,1,5.72,15.54c.29,4.19-.52,6.7-.69,6.7a7.48,7.48,0,0,0,4.63-4.69c1-2.62,1.36-6.39.1-10.92-1.38-5.09-5.2-9.45-8.63-12.12a29.07,29.07,0,0,0-6.43-3.86s-.39,3.23-.67,7.28S573.55,667.06,574.65,671.14Z" transform="translate(-280.2 -305.98)"/><path class="cls-1" d="M646.69,784c-1.31-4.72-3.89-7.66-6.22-9s-4.52-1.22-6.08-.26c.29,1.42,2,4.27,3.2,7.88a31,31,0,0,1,1.59,11.28A69.6,69.6,0,0,0,635,781.27c-1.28-3-2.21-5-2.05-5.15a13.1,13.1,0,0,0-1.92,5.65,16.22,16.22,0,0,0,.57,6.49c.73,2.59,2.72,5.28,3.9,8.41a29.17,29.17,0,0,1,1.58,6.11,13.26,13.26,0,0,0,6-3.95,16.65,16.65,0,0,0,3.58-6.56A15.59,15.59,0,0,0,646.69,784Z" transform="translate(-280.2 -305.98)"/></svg>